<svg viewBox="0 0 64 64" fill="none" xmlns="http://www.w3.org/2000/svg"><path d="M61 16.193a22.16 22.16 0 0 1-6.367 1.747 11.107 11.107 0 0 0 4.873-6.128 22.248 22.248 0 0 1-7.037 2.685A11.052 11.052 0 0 0 44.385 11c-6.12 0-11.081 4.958-11.081 11.077 0 .867.1 1.713.29 2.525-9.209-.463-17.369-4.873-22.836-11.578a11.037 11.037 0 0 0-1.498 5.572 11.08 11.08 0 0 0 4.928 9.226 11.068 11.068 0 0 1-5.02-1.39v.14c0 5.37 3.82 9.844 8.884 10.866a11.086 11.086 0 0 1-5.004.185c1.414 4.398 5.504 7.61 10.348 7.698A22.209 22.209 0 0 1 9.64 50.06c-.897 0-1.776-.05-2.639-.156a31.301 31.301 0 0 0 16.982 4.979c20.377 0 31.522-16.88 31.522-31.518 0-.48-.013-.964-.03-1.435A22.522 22.522 0 0 0 61 16.193Z" fill="currentColor"/></svg>