<svg viewBox="0 0 64 64" fill="none" xmlns="http://www.w3.org/2000/svg"><path d="M22.114 8C14.366 8 8 14.358 8 22.114v19.772C8 49.633 14.358 56 22.114 56h19.772C49.633 56 56 49.642 56 41.886V22.114C56 14.366 49.642 8 41.886 8H22.114Zm0 4.364h19.772a9.737 9.737 0 0 1 9.75 9.75v19.772a9.737 9.737 0 0 1-9.75 9.75H22.114a9.737 9.737 0 0 1-9.75-9.75V22.114a9.737 9.737 0 0 1 9.75-9.75Zm22.772 4.772c-1.1 0-1.977.878-1.977 1.978s.878 1.977 1.977 1.977c1.1 0 1.978-.878 1.978-1.977 0-1.1-.878-1.978-1.978-1.978ZM32 18.91c-7.202 0-13.09 5.89-13.09 13.091 0 7.202 5.888 13.09 13.09 13.09S45.09 39.203 45.09 32 39.203 18.91 32 18.91Zm0 4.364A8.69 8.69 0 0 1 40.727 32 8.69 8.69 0 0 1 32 40.727 8.69 8.69 0 0 1 23.273 32 8.69 8.69 0 0 1 32 23.273Z" fill="currentColor"/></svg>