<svg viewBox="0 0 64 64" fill="none" xmlns="http://www.w3.org/2000/svg"><g clip-path="url(#a)"><path d="M32 0C14.354 0 0 14.354 0 32s14.354 32 32 32 32-14.354 32-32S49.646 0 32 0Zm15.634 25.773c.014.328.022.662.022.997 0 10.182-7.753 21.926-21.93 21.926a21.805 21.805 0 0 1-11.813-3.463c.602.072 1.213.107 1.838.107a15.45 15.45 0 0 0 9.57-3.298c-3.372-.06-6.216-2.294-7.2-5.352a7.69 7.69 0 0 0 3.482-.132A7.713 7.713 0 0 1 15.424 29v-.097a7.676 7.676 0 0 0 3.49.966 7.7 7.7 0 0 1-3.427-6.416 7.68 7.68 0 0 1 1.042-3.876c3.802 4.662 9.481 7.73 15.886 8.053a7.707 7.707 0 0 1 7.506-9.462 7.69 7.69 0 0 1 5.623 2.433 15.448 15.448 0 0 0 4.895-1.868 7.73 7.73 0 0 1-3.39 4.262 15.502 15.502 0 0 0 4.428-1.214 15.672 15.672 0 0 1-3.843 3.992Z" fill="currentColor"/></g><defs><clipPath id="a"><path fill="#fff" d="M0 0h64v64H0z"/></clipPath></defs></svg>