<svg viewBox="0 0 64 64" fill="none" xmlns="http://www.w3.org/2000/svg"><path d="M32 6C17.642 6 6 17.642 6 32c0 .617.05 1.221.093 1.828l9.733 2.543a8.671 8.671 0 0 1 6.191-4.24l1.46-2.62a13.275 13.275 0 0 1-.144-1.844c0-7.18 5.82-13 13-13s13 5.82 13 13-5.82 13-13 13c-.628 0-1.24-.06-1.845-.144l-2.62 1.46c-.636 4.158-4.2 7.35-8.535 7.35a8.667 8.667 0 0 1-8.666-8.666c0-.04.012-.076.012-.115l-7.824-2.04C9.747 49.715 19.893 58 32 58c14.358 0 26-11.642 26-26S46.358 6 32 6Zm4.333 13c-4.78 0-8.666 3.887-8.666 8.667 0 4.78 3.887 8.666 8.666 8.666 4.78 0 8.667-3.887 8.667-8.666C45 22.887 41.113 19 36.333 19Zm0 4.333a4.338 4.338 0 0 1 4.334 4.334A4.338 4.338 0 0 1 36.333 32 4.338 4.338 0 0 1 32 27.667a4.338 4.338 0 0 1 4.333-4.334Zm-13 11.917c-1.7 0-3.201.798-4.193 2.027l4.765 1.3a2.17 2.17 0 0 1 1.523 2.661 2.177 2.177 0 0 1-2.666 1.52l-4.77-1.3c.389 2.613 2.62 4.625 5.341 4.625a5.416 5.416 0 0 0 5.417-5.416 5.416 5.416 0 0 0-5.417-5.417Z" fill="currentColor"/></svg>