<svg viewBox="0 0 64 64" fill="none" xmlns="http://www.w3.org/2000/svg"><g clip-path="url(#a)"><path d="M32 0C14.355 0 0 14.355 0 32c0 13.752 8.72 25.503 20.92 30.02-.351-3.133-.296-8.263.284-10.747.543-2.333 3.508-14.869 3.508-14.869s-.895-1.792-.895-4.44c0-4.16 2.41-7.264 5.411-7.264 2.553 0 3.785 1.917 3.785 4.213 0 2.568-1.633 6.404-2.479 9.959-.705 2.979 1.494 5.407 4.43 5.407 5.316 0 9.403-5.606 9.403-13.698 0-7.161-5.145-12.17-12.493-12.17-8.51 0-13.506 6.384-13.506 12.983 0 2.57.99 5.327 2.226 6.827.244.297.28.556.207.857-.227.944-.73 2.976-.83 3.393-.13.549-.434.662-1 .399-3.737-1.74-6.073-7.201-6.073-11.59 0-9.434 6.855-18.101 19.766-18.101 10.377 0 18.441 7.393 18.441 17.277 0 10.31-6.501 18.606-15.522 18.606-3.032 0-5.88-1.575-6.855-3.435 0 0-1.5 5.71-1.865 7.11-.63 2.422-3.324 7.439-4.677 9.717C25.281 63.454 28.577 64 32 64c17.645 0 32-14.355 32-32S49.645 0 32 0Z" fill="currentColor"/></g><defs><clipPath id="a"><path fill="#fff" d="M0 0h64v64H0z"/></clipPath></defs></svg>