<svg viewBox="0 0 64 64" fill="none" xmlns="http://www.w3.org/2000/svg"><path d="M52.962 14.754c-5.019-4.039-12.958-4.723-13.298-4.748a1.251 1.251 0 0 0-1.246.739c-.02.03-.193.429-.385 1.05 3.32.56 7.398 1.688 11.087 3.979a1.261 1.261 0 1 1-1.33 2.142c-6.343-3.935-14.263-4.132-15.79-4.132-1.527 0-9.452.197-15.79 4.132a1.261 1.261 0 0 1-1.33-2.143c3.689-2.285 7.767-3.417 11.086-3.974-.192-.625-.364-1.02-.379-1.054a1.244 1.244 0 0 0-1.25-.739c-.34.025-8.28.71-13.368 4.802C8.314 17.266 3 31.628 3 44.045c0 .221.06.433.167.625 3.665 6.442 13.668 8.127 15.949 8.2h.039a1.26 1.26 0 0 0 1.02-.516l2.305-3.172c-6.221-1.606-9.398-4.334-9.58-4.497a1.262 1.262 0 0 1 1.67-1.891c.073.069 5.925 5.033 17.43 5.033 11.525 0 17.376-4.984 17.435-5.033a1.262 1.262 0 0 1 1.779.118 1.255 1.255 0 0 1-.114 1.773c-.182.163-3.359 2.891-9.58 4.497l2.306 3.172a1.26 1.26 0 0 0 1.02.517h.039c2.28-.074 12.283-1.759 15.948-8.2.108-.193.167-.405.167-.626 0-12.417-5.314-26.779-8.038-29.29ZM23.804 39.001c-2.438 0-4.413-2.255-4.413-5.043 0-2.788 1.975-5.044 4.413-5.044s4.413 2.256 4.413 5.044S26.242 39 23.804 39Zm16.392 0c-2.438 0-4.413-2.255-4.413-5.043 0-2.788 1.975-5.044 4.413-5.044s4.413 2.256 4.413 5.044S42.634 39 40.196 39Z" fill="currentColor"/></svg>