<svg viewBox="0 0 64 64" fill="none" xmlns="http://www.w3.org/2000/svg"><path d="M34.609 4C23.237 4 12 11.578 12 23.848c0 7.802 4.387 12.237 7.048 12.237 1.097 0 1.732-3.06 1.732-3.925 0-1.03-2.63-3.226-2.63-7.515 0-8.91 6.784-15.225 15.562-15.225 7.548 0 13.133 4.287 13.133 12.167 0 5.884-2.362 16.921-10.01 16.921-2.759 0-5.118-1.993-5.118-4.851 0-4.189 2.682-8.246 2.682-12.57 0-7.337-10.163-6.006-10.163 2.862 0 1.861.232 3.922 1.063 5.617-1.527 6.583-4.34 17.076-4.34 23.86 0 2.094.3 4.155.5 6.252.376.42.19.377.765.166 5.586-7.647 5.068-9.827 7.595-19.835 1.364 2.594 4.888 3.99 7.682 3.99 11.77 0 17.057-11.471 17.057-21.813C54.558 11.18 45.048 4 34.608 4Z" fill="currentColor"/></svg>