<svg viewBox="0 0 64 64" fill="none" xmlns="http://www.w3.org/2000/svg"><g clip-path="url(#a)"><path d="M64 32C64 14.333 49.667 0 32 0S0 14.333 0 32c0 15.013 10.333 27.6 24.267 31.053v-21.28h-6.6V32h6.6v-4.213c0-10.894 4.933-15.947 15.626-15.947 2.027 0 5.52.4 6.96.8v8.867c-.76-.08-2.066-.12-3.693-.12-5.253 0-7.28 1.986-7.28 7.16V32h10.453l-1.8 9.773H35.88V63.76C51.72 61.84 64 48.36 64 32Z" fill="currentColor"/></g><defs><clipPath id="a"><path fill="#fff" d="M0 0h64v64H0z"/></clipPath></defs></svg>