<svg width="64" height="64" viewBox="0 0 64 64" fill="none" xmlns="http://www.w3.org/2000/svg">
<path d="M15.2461 3C11.7975 3 9 5.79293 9 9.24148C9 12.69 11.7953 15.5476 15.2415 15.5476C18.6877 15.5476 21.4876 12.69 21.4876 9.24148C21.4876 5.7953 18.6946 3 15.2461 3ZM45.7195 19.5455C40.4745 19.5455 37.4735 22.2883 36.0341 25.016H35.8817V20.2795H25.5455V55H36.3157V37.8129C36.3157 33.2841 36.6575 28.9077 42.2617 28.9077C47.7855 28.9077 47.8661 34.0714 47.8661 38.0991V55H58.6225H58.6364V35.9293C58.6364 26.5977 56.63 19.5455 45.7195 19.5455ZM9.85866 20.2795V55H20.6381V20.2795H9.85866Z" fill="currentColor"/>
</svg>
