<svg width="64" height="64" viewBox="0 0 64 64" fill="none" xmlns="http://www.w3.org/2000/svg">
<path d="M34.6088 4C23.2369 4 12 11.5783 12 23.8484C12 31.6499 16.3868 36.0846 19.0478 36.0846C20.1453 36.0846 20.7802 33.025 20.7802 32.1604C20.7802 31.1301 18.1509 28.9339 18.1509 24.6446C18.1509 15.7343 24.9339 9.42035 33.712 9.42035C41.2604 9.42035 46.8451 13.7067 46.8451 21.5866C46.8451 27.4708 44.4826 38.5082 36.8356 38.5082C34.0761 38.5082 31.7171 36.5147 31.7171 33.6566C31.7171 29.468 34.3989 25.4109 34.3989 21.0879C34.3989 13.75 24.2362 15.0813 24.2362 23.949C24.2362 25.8103 24.4683 27.8706 25.2993 29.5662C23.7717 36.1492 20.9595 46.6416 20.9595 53.4262C20.9595 55.5205 21.2589 57.5812 21.4583 59.6778C21.8346 60.0989 21.6482 60.0546 22.2239 59.844C27.8101 52.197 27.2919 50.0166 29.8185 40.0088C31.1826 42.6026 34.7074 43.9986 37.5006 43.9986C49.2712 43.9986 54.5578 32.5275 54.5578 22.1859C54.5578 11.1814 45.0489 4 34.6088 4Z" fill="currentColor"/>
</svg>
