<svg width="64" height="64" viewBox="0 0 64 64" fill="none" xmlns="http://www.w3.org/2000/svg">
<path d="M32 6C17.6415 6 6 17.6415 6 32C6 32.6175 6.04977 33.2215 6.0931 33.8281L15.8262 36.3714C17.1153 34.1419 19.3631 32.5364 22.0173 32.1312L23.4772 29.5117C23.3927 28.9072 23.3333 28.295 23.3333 27.6667C23.3333 20.4863 29.153 14.6667 36.3333 14.6667C43.5137 14.6667 49.3333 20.4863 49.3333 27.6667C49.3333 34.847 43.5137 40.6667 36.3333 40.6667C35.705 40.6667 35.0928 40.6073 34.4883 40.5228L31.8688 41.9827C31.2318 46.1406 27.6688 49.3333 23.3333 49.3333C18.5472 49.3333 14.6667 45.4528 14.6667 40.6667C14.6667 40.6277 14.6794 40.5914 14.6794 40.5524L6.85482 38.5127C9.74732 49.7144 19.8927 58 32 58C46.3585 58 58 46.3585 58 32C58 17.6415 46.3585 6 32 6ZM36.3333 19C31.5537 19 27.6667 22.887 27.6667 27.6667C27.6667 32.4463 31.5537 36.3333 36.3333 36.3333C41.113 36.3333 45 32.4463 45 27.6667C45 22.887 41.113 19 36.3333 19ZM36.3333 23.3333C38.7232 23.3333 40.6667 25.2768 40.6667 27.6667C40.6667 30.0565 38.7232 32 36.3333 32C33.9435 32 32 30.0565 32 27.6667C32 25.2768 33.9435 23.3333 36.3333 23.3333ZM23.3333 35.25C21.6325 35.25 20.132 36.0485 19.1396 37.277L23.9046 38.5762C25.0595 38.8925 25.7422 40.0831 25.4281 41.238C25.1616 42.2 24.2867 42.8333 23.3333 42.8333C23.1448 42.8333 22.9549 42.8092 22.762 42.7572L17.9928 41.458C18.3807 44.071 20.612 46.0833 23.3333 46.0833C26.3255 46.0833 28.75 43.6588 28.75 40.6667C28.75 37.6745 26.3255 35.25 23.3333 35.25Z" fill="currentColor"/>
</svg>
