<svg width="64" height="64" viewBox="0 0 64 64" fill="none" xmlns="http://www.w3.org/2000/svg">
<g clip-path="url(#clip0_6_153)">
<path d="M64 32C64 14.3333 49.6667 0 32 0C14.3333 0 0 14.3333 0 32C0 47.0133 10.3333 59.6 24.2667 63.0533V41.7733H17.6667V32H24.2667V27.7867C24.2667 16.8933 29.2 11.84 39.8933 11.84C41.92 11.84 45.4133 12.24 46.8533 12.64V21.5067C46.0933 21.4267 44.7867 21.3867 43.16 21.3867C37.9067 21.3867 35.88 23.3733 35.88 28.5467V32H46.3333L44.5333 41.7733H35.88V63.76C51.72 61.84 64 48.36 64 32Z" fill="currentColor"/>
</g>
<defs>
<clipPath id="clip0_6_153">
<rect width="64" height="64" fill="white"/>
</clipPath>
</defs>
</svg>
