<svg width="64" height="64" viewBox="0 0 64 64" fill="none" xmlns="http://www.w3.org/2000/svg">
<path d="M21.3333 8C13.9707 8 8 13.9707 8 21.3333V42.6667C8 50.0293 13.9707 56 21.3333 56H42.6667C50.0293 56 56 50.0293 56 42.6667V21.3333C56 13.9707 50.0293 8 42.6667 8H21.3333ZM48 13.3333C49.472 13.3333 50.6667 14.528 50.6667 16C50.6667 17.472 49.472 18.6667 48 18.6667C46.528 18.6667 45.3333 17.472 45.3333 16C45.3333 14.528 46.528 13.3333 48 13.3333ZM32 18.6667C39.3627 18.6667 45.3333 24.6373 45.3333 32C45.3333 39.3627 39.3627 45.3333 32 45.3333C24.6373 45.3333 18.6667 39.3627 18.6667 32C18.6667 24.6373 24.6373 18.6667 32 18.6667ZM32 24C29.8783 24 27.8434 24.8429 26.3431 26.3431C24.8429 27.8434 24 29.8783 24 32C24 34.1217 24.8429 36.1566 26.3431 37.6569C27.8434 39.1571 29.8783 40 32 40C34.1217 40 36.1566 39.1571 37.6569 37.6569C39.1571 36.1566 40 34.1217 40 32C40 29.8783 39.1571 27.8434 37.6569 26.3431C36.1566 24.8429 34.1217 24 32 24Z" fill="currentColor"/>
</svg>
