<svg width="64" height="64" viewBox="0 0 64 64" fill="none" xmlns="http://www.w3.org/2000/svg">
<path d="M61 16.1934C59.0093 17.0772 56.8756 17.6706 54.6325 17.9399C56.9219 16.5679 58.6811 14.3963 59.506 11.8123C57.368 13.079 54.9902 14.0007 52.4693 14.4973C50.4491 12.3425 47.5705 11 44.3846 11C38.2654 11 33.3035 15.9577 33.3035 22.0769C33.3035 22.9439 33.4045 23.7898 33.5939 24.6021C24.3855 24.1391 16.2252 19.7285 10.7582 13.0243C9.8029 14.6657 9.26 16.5679 9.26 18.5964C9.26 22.4389 11.2128 25.831 14.1882 27.8216C12.3701 27.7627 10.6614 27.2619 9.16741 26.4328C9.16741 26.4791 9.16741 26.5254 9.16741 26.5717C9.16741 31.9418 12.9888 36.4155 18.0517 37.4382C17.1258 37.6907 16.1452 37.8253 15.1351 37.8253C14.4197 37.8253 13.7253 37.758 13.0477 37.6233C14.4618 42.0213 18.5525 45.2324 23.3965 45.3208C19.6088 48.292 14.8321 50.0596 9.63877 50.0596C8.74234 50.0596 7.86275 50.0091 7 49.9039C11.8988 53.0519 17.7234 54.8826 23.9815 54.8826C44.3594 54.8826 55.5036 38.0021 55.5036 23.3647C55.5036 22.885 55.491 22.401 55.4742 21.9296C57.6374 20.3682 59.5144 18.4155 61 16.1934Z" fill="currentColor"/>
</svg>
