<svg width="64" height="64" viewBox="0 0 64 64" fill="none" xmlns="http://www.w3.org/2000/svg">
<path d="M52.962 14.7542C47.9431 10.7154 40.0036 10.0308 39.6637 10.0062C39.1367 9.96187 38.6343 10.2574 38.4176 10.745C38.3979 10.7745 38.2255 11.1735 38.0335 11.7941C41.3531 12.3556 45.4312 13.4834 49.1202 15.7737C49.7113 16.1382 49.8935 16.9164 49.529 17.5074C49.2877 17.8965 48.8789 18.1083 48.4553 18.1083C48.2288 18.1083 47.9973 18.0442 47.7904 17.9162C41.4467 13.9809 33.5268 13.7839 32 13.7839C30.4732 13.7839 22.5484 13.9809 16.2096 17.9162C15.6185 18.2856 14.8404 18.1033 14.4759 17.5123C14.1065 16.9164 14.2887 16.1431 14.8798 15.7737C18.5688 13.4884 22.6469 12.3556 25.9665 11.799C25.7745 11.1735 25.6021 10.7795 25.5873 10.745C25.3657 10.2574 24.8682 9.95202 24.3363 10.0062C23.9964 10.0308 16.0569 10.7154 10.9691 14.8083C8.31437 17.2661 3 31.6281 3 44.0448C3 44.2664 3.0591 44.4782 3.16746 44.6703C6.83186 51.1125 16.8351 52.797 19.1155 52.8708C19.1253 52.8708 19.1401 52.8708 19.1549 52.8708C19.5588 52.8708 19.938 52.6788 20.1744 52.3537L22.4795 49.1818C16.2588 47.5762 13.082 44.8476 12.8998 44.685C12.3777 44.227 12.3285 43.4291 12.7914 42.907C13.2495 42.3849 14.0474 42.3357 14.5695 42.7937C14.6433 42.8627 20.4946 47.8274 32 47.8274C43.5251 47.8274 49.3764 42.843 49.4355 42.7937C49.9575 42.3406 50.7505 42.3849 51.2135 42.9119C51.6715 43.434 51.6223 44.227 51.1002 44.685C50.918 44.8476 47.7412 47.5762 41.5206 49.1818L43.8256 52.3537C44.062 52.6788 44.4412 52.8708 44.8451 52.8708C44.8599 52.8708 44.8747 52.8708 44.8845 52.8708C47.1649 52.797 57.1681 51.1125 60.8325 44.6703C60.9409 44.4782 61 44.2664 61 44.0448C61 31.6281 55.6856 17.2661 52.962 14.7542ZM23.8043 39.0013C21.3663 39.0013 19.3913 36.7455 19.3913 33.9578C19.3913 31.1701 21.3663 28.9143 23.8043 28.9143C26.2424 28.9143 28.2174 31.1701 28.2174 33.9578C28.2174 36.7455 26.2424 39.0013 23.8043 39.0013ZM40.1957 39.0013C37.7576 39.0013 35.7826 36.7455 35.7826 33.9578C35.7826 31.1701 37.7576 28.9143 40.1957 28.9143C42.6337 28.9143 44.6087 31.1701 44.6087 33.9578C44.6087 36.7455 42.6337 39.0013 40.1957 39.0013Z" fill="currentColor"/>
</svg>
