<svg width="64" height="64" viewBox="0 0 64 64" fill="none" xmlns="http://www.w3.org/2000/svg">
<g clip-path="url(#clip0_6_152)">
<path d="M32 0C14.3553 0 0 14.3553 0 32C0 45.7519 8.72011 57.503 20.9202 62.0201C20.5688 58.8875 20.6239 53.7571 21.2037 51.2732C21.7467 48.94 24.7115 36.4041 24.7115 36.4041C24.7115 36.4041 23.8165 34.6117 23.8165 31.9643C23.8165 27.8041 26.2268 24.7001 29.2284 24.7001C31.7814 24.7001 33.0125 26.6168 33.0125 28.9132C33.0125 31.4811 31.3798 35.3169 30.5342 38.8719C29.829 41.8506 32.0276 44.2793 34.9637 44.2793C40.2801 44.2793 44.3668 38.6729 44.3668 30.5814C44.3668 23.4196 39.2217 18.4114 31.8735 18.4114C23.3632 18.4114 18.3677 24.7955 18.3677 31.3937C18.3677 33.9639 19.3572 36.7205 20.5939 38.2208C20.8378 38.5176 20.8735 38.7765 20.801 39.0779C20.5744 40.0224 20.0705 42.0543 19.9704 42.4707C19.8404 43.0195 19.5366 43.1334 18.9705 42.8699C15.2338 41.1304 12.8982 35.669 12.8982 31.2809C12.8982 21.8457 19.7529 13.1789 32.6638 13.1789C43.0414 13.1789 51.1052 20.5721 51.1052 30.456C51.1052 40.7656 44.6038 49.0619 35.5826 49.0619C32.5511 49.0619 29.7024 47.4869 28.728 45.6265C28.728 45.6265 27.2278 51.3376 26.863 52.7378C26.2335 55.1592 23.5388 60.1757 22.1861 62.4542C25.2807 63.4539 28.5771 64 32 64C49.6454 64 64 49.6454 64 32C64 14.3553 49.6454 0 32 0Z" fill="currentColor"/>
</g>
<defs>
<clipPath id="clip0_6_152">
<rect width="64" height="64" fill="white"/>
</clipPath>
</defs>
</svg>
