<svg width="64" height="64" viewBox="0 0 64 64" fill="none" xmlns="http://www.w3.org/2000/svg">
<path d="M57.8754 18.9032C57.253 16.5784 55.4261 14.7514 53.1012 14.1291C48.8872 13 32 13 32 13C32 13 15.1128 13 10.9032 14.1291C8.57837 14.7514 6.7514 16.5784 6.12907 18.9032C5 23.1128 5 31.9009 5 31.9009C5 31.9009 5 40.689 6.12907 44.8986C6.7514 47.2234 8.57837 49.0504 10.9032 49.6727C15.1128 50.8018 32 50.8018 32 50.8018C32 50.8018 48.8872 50.8018 53.0968 49.6727C55.4216 49.0504 57.2486 47.2234 57.8709 44.8986C59 40.689 59 31.9009 59 31.9009C59 31.9009 59 23.1128 57.8709 18.9032H57.8754ZM26.5991 40V23.8018L40.6281 31.9009L26.5991 40Z" fill="currentColor"/>
</svg>
