<svg width="64" height="64" viewBox="0 0 64 64" fill="none" xmlns="http://www.w3.org/2000/svg">
<g clip-path="url(#clip0_6_161)">
<path d="M32 0C14.3541 0 0 14.3541 0 32C0 49.6459 14.3541 64 32 64C49.6459 64 64 49.6459 64 32C64 14.3541 49.6459 0 32 0ZM47.6341 25.7725C47.648 26.1009 47.6563 26.4348 47.6563 26.7701C47.6563 36.9517 39.9026 48.6957 25.7266 48.6957C21.3746 48.6957 17.3217 47.4198 13.913 45.2327C14.5155 45.305 15.1263 45.3398 15.751 45.3398C19.3628 45.3398 22.6866 44.1099 25.3217 42.0424C21.9492 41.9812 19.1054 39.7482 18.1217 36.6901C18.5934 36.7805 19.0762 36.8292 19.5743 36.8292C20.2769 36.8292 20.9586 36.736 21.6028 36.5579C18.08 35.847 15.424 32.736 15.424 29.0003C15.424 28.967 15.424 28.935 15.424 28.903C16.4633 29.4803 17.6501 29.8282 18.9148 29.8685C16.8445 28.4842 15.4866 26.1273 15.4866 23.4532C15.4866 22.041 15.865 20.7179 16.5287 19.577C20.3311 24.2393 26.0104 27.3071 32.4146 27.6299C32.2824 27.065 32.2129 26.4779 32.2129 25.8741C32.2129 21.6181 35.6633 18.1677 39.9207 18.1677C42.137 18.1677 44.1391 19.1026 45.5443 20.601C47.2988 20.256 48.9503 19.6146 50.439 18.7325C49.8643 20.5301 48.6414 22.041 47.0484 22.9955C48.6094 22.8063 50.0925 22.3944 51.4769 21.7809C50.4445 23.3266 49.1381 24.6859 47.6341 25.7725Z" fill="currentColor"/>
</g>
<defs>
<clipPath id="clip0_6_161">
<rect width="64" height="64" fill="white"/>
</clipPath>
</defs>
</svg>
