<svg width="64" height="64" viewBox="0 0 64 64" fill="none" xmlns="http://www.w3.org/2000/svg">
<path d="M22.1136 8C14.3665 8 8 14.358 8 22.1136V41.8864C8 49.6335 14.358 56 22.1136 56H41.8864C49.6335 56 56 49.642 56 41.8864V22.1136C56 14.3665 49.642 8 41.8864 8H22.1136ZM22.1136 12.3636H41.8864C47.2812 12.3636 51.6364 16.7188 51.6364 22.1136V41.8864C51.6364 47.2812 47.2812 51.6364 41.8864 51.6364H22.1136C16.7188 51.6364 12.3636 47.2812 12.3636 41.8864V22.1136C12.3636 16.7188 16.7188 12.3636 22.1136 12.3636ZM44.8864 17.1364C43.7869 17.1364 42.9091 18.0142 42.9091 19.1136C42.9091 20.2131 43.7869 21.0909 44.8864 21.0909C45.9858 21.0909 46.8636 20.2131 46.8636 19.1136C46.8636 18.0142 45.9858 17.1364 44.8864 17.1364ZM32 18.9091C24.7983 18.9091 18.9091 24.7983 18.9091 32C18.9091 39.2017 24.7983 45.0909 32 45.0909C39.2017 45.0909 45.0909 39.2017 45.0909 32C45.0909 24.7983 39.2017 18.9091 32 18.9091ZM32 23.2727C36.8494 23.2727 40.7273 27.1506 40.7273 32C40.7273 36.8494 36.8494 40.7273 32 40.7273C27.1506 40.7273 23.2727 36.8494 23.2727 32C23.2727 27.1506 27.1506 23.2727 32 23.2727Z" fill="currentColor"/>
</svg>
