<svg width="24" height="24" viewBox="0 0 24 24" fill="none" xmlns="http://www.w3.org/2000/svg">
<path d="M14.24 21H9.76C9.70031 21.002 9.6433 21.0252 9.59928 21.0656C9.55526 21.1059 9.52713 21.1607 9.52 21.22C9.51505 21.3133 9.51505 21.4067 9.52 21.5C9.52 22.163 9.78339 22.7989 10.2522 23.2678C10.7211 23.7366 11.357 24 12.02 24C12.683 24 13.3189 23.7366 13.7878 23.2678C14.2566 22.7989 14.52 22.163 14.52 21.5C14.525 21.4067 14.525 21.3133 14.52 21.22C14.5163 21.1871 14.5061 21.1552 14.4899 21.1263C14.4738 21.0973 14.4521 21.0719 14.426 21.0514C14.4 21.0309 14.3701 21.0159 14.3382 21.007C14.3062 20.9982 14.2729 20.9958 14.24 21Z" fill="currentColor"/>
<path d="M21.45 19.28C20.3002 17.004 19.7008 14.4899 19.7 11.94V11.18C19.7289 9.68856 19.3912 8.21283 18.7164 6.88245C18.0416 5.55207 17.0505 4.40775 15.83 3.55C15.1218 3.09422 14.3296 2.78481 13.5 2.64V1.5C13.5 1.10218 13.342 0.720644 13.0607 0.43934C12.7794 0.158035 12.3978 0 12 0C11.6022 0 11.2206 0.158035 10.9393 0.43934C10.658 0.720644 10.5 1.10218 10.5 1.5V2.65C9.46218 2.84539 8.48546 3.28405 7.65 3.93C6.58157 4.80807 5.72534 5.9162 5.14526 7.1716C4.56517 8.42701 4.27623 9.79726 4.3 11.18V11.94C4.29918 14.4899 3.69977 17.004 2.55 19.28C2.51061 19.3539 2.49 19.4363 2.49 19.52C2.49 19.6037 2.51061 19.6861 2.55 19.76C2.59808 19.8353 2.66474 19.8969 2.74356 19.939C2.82238 19.981 2.91069 20.002 3 20H21C21.0859 19.9986 21.1702 19.976 21.2452 19.9341C21.3202 19.8922 21.3837 19.8324 21.43 19.76C21.4725 19.6878 21.4966 19.6062 21.5001 19.5225C21.5035 19.4388 21.4864 19.3555 21.45 19.28Z" fill="currentColor"/>
</svg>
