<svg width="24" height="24" viewBox="0 0 24 24" fill="none" xmlns="http://www.w3.org/2000/svg">
<path d="M18.5 15.2H15.3C15.2 15.2 15.1 15.2 15.1 15V8.99999C15.1 8.89999 15.2 8.79999 15.3 8.79999H18.5C19.1 8.79999 19.5 8.29999 19.5 7.79999C19.5 7.49999 19.5 7.29999 19.2 7.09999L13.1 0.499988C12.5 -0.100012 11.6 -0.100012 11 0.499988L4.8 7.09999C4.4 7.49999 4.4 8.09999 4.8 8.49999C5 8.69999 5.2 8.79999 5.5 8.79999H8.7C8.8 8.79999 8.9 8.89999 8.9 8.99999V15C8.9 15.1 8.8 15.2 8.7 15.2H5.5C5.1 15.2 4.7 15.4 4.6 15.8C4.4 16.2 4.6 16.6 4.8 16.9L11 23.5C11.5 24.1 12.5 24.1 13 23.5L19.2 16.9C19.5 16.6 19.5 16.2 19.4 15.8C19.2 15.4 18.9 15.2 18.5 15.2Z" fill="currentColor"/>
</svg>
