<svg width="24" height="24" viewBox="0 0 24 24" fill="none" xmlns="http://www.w3.org/2000/svg">
<path d="M9 22.5C9 22.8978 9.15803 23.2794 9.43934 23.5607C9.72064 23.842 10.1022 24 10.5 24H13.5C13.8978 24 14.2794 23.842 14.5607 23.5607C14.842 23.2794 15 22.8978 15 22.5V9.00001C15 8.93371 15.0263 8.87012 15.0732 8.82324C15.1201 8.77635 15.1837 8.75001 15.25 8.75001H18.5C18.6943 8.74939 18.8842 8.69217 19.0465 8.58536C19.2088 8.47854 19.3365 8.32675 19.4139 8.14855C19.4914 7.97034 19.5152 7.77343 19.4826 7.58189C19.4499 7.39035 19.3621 7.21248 19.23 7.07001L13.07 0.450014C12.9304 0.307907 12.7639 0.195034 12.5801 0.117984C12.3964 0.0409343 12.1992 0.00125122 12 0.00125122C11.8008 0.00125122 11.6036 0.0409343 11.4198 0.117984C11.2361 0.195034 11.0696 0.307907 10.93 0.450014L4.77 7.08001C4.63787 7.22248 4.55011 7.40035 4.51744 7.59189C4.48477 7.78343 4.50861 7.98034 4.58605 8.15855C4.66348 8.33675 4.79116 8.48854 4.95347 8.59536C5.11578 8.70217 5.30569 8.75939 5.5 8.76001H8.75C8.8146 8.75996 8.87672 8.78492 8.92333 8.82967C8.96994 8.87441 8.99741 8.93546 9 9.00001V22.5Z" fill="currentColor"/>
</svg>
