<svg width="24" height="24" viewBox="0 0 24 24" fill="none" xmlns="http://www.w3.org/2000/svg">
<path d="M5.5 15.22C5.30483 15.2193 5.11373 15.2758 4.95025 15.3824C4.78678 15.489 4.65807 15.6411 4.58 15.82C4.50304 15.999 4.48001 16.1965 4.51377 16.3884C4.54752 16.5802 4.63658 16.7581 4.77 16.9L10.93 23.53C11.0659 23.6786 11.2312 23.7972 11.4154 23.8783C11.5996 23.9595 11.7987 24.0014 12 24.0014C12.2013 24.0014 12.4004 23.9595 12.5846 23.8783C12.7688 23.7972 12.9341 23.6786 13.07 23.53L19.23 16.9C19.3634 16.7581 19.4525 16.5802 19.4862 16.3884C19.52 16.1965 19.497 15.999 19.42 15.82C19.3419 15.6411 19.2132 15.489 19.0498 15.3824C18.8863 15.2758 18.6952 15.2193 18.5 15.22H15.25C15.1886 15.2204 15.1292 15.1983 15.083 15.1577C15.0369 15.1171 15.0074 15.061 15 15V1.5C15 1.10218 14.842 0.720644 14.5607 0.43934C14.2794 0.158035 13.8978 0 13.5 0L10.5 0C10.1022 0 9.72065 0.158035 9.43934 0.43934C9.15804 0.720644 9 1.10218 9 1.5V15C9 15.0663 8.97367 15.1299 8.92678 15.1768C8.8799 15.2237 8.81631 15.25 8.75 15.25L5.5 15.22Z" fill="currentColor"/>
</svg>
