<svg width="24" height="24" viewBox="0 0 24 24" fill="none" xmlns="http://www.w3.org/2000/svg">
<path d="M21.72 13.72C21.6443 13.5358 21.5154 13.3784 21.3497 13.2679C21.184 13.1575 20.9891 13.099 20.79 13.1H15.79C15.7237 13.1 15.6601 13.0737 15.6132 13.0268C15.5663 12.9799 15.54 12.9163 15.54 12.85V1.10001C15.54 0.83479 15.4346 0.580436 15.2471 0.392899C15.0596 0.205363 14.8052 0.100006 14.54 0.100006H9.54C9.27478 0.100006 9.02043 0.205363 8.83289 0.392899C8.64535 0.580436 8.54 0.83479 8.54 1.10001V12.85C8.54 12.9163 8.51366 12.9799 8.46677 13.0268C8.41989 13.0737 8.3563 13.1 8.29 13.1H3.29C3.09137 13.0989 2.8969 13.1569 2.73138 13.2667C2.56586 13.3765 2.43679 13.5331 2.36062 13.7165C2.28446 13.9 2.26465 14.1019 2.30372 14.2967C2.34279 14.4914 2.43897 14.6701 2.58 14.81L11.37 23.61C11.463 23.7037 11.5736 23.7781 11.6954 23.8289C11.8173 23.8797 11.948 23.9058 12.08 23.9058C12.212 23.9058 12.3427 23.8797 12.4646 23.8289C12.5864 23.7781 12.697 23.7037 12.79 23.61L21.58 14.81C21.7072 14.6618 21.7883 14.4797 21.8131 14.286C21.838 14.0923 21.8056 13.8955 21.72 13.72Z" fill="currentColor"/>
</svg>
