<svg width="24" height="24" viewBox="0 0 24 24" fill="none" xmlns="http://www.w3.org/2000/svg">
<path d="M21.5 9.19001L12.71 0.390006C12.617 0.296278 12.5064 0.221883 12.3846 0.171115C12.2627 0.120346 12.132 0.0942078 12 0.0942078C11.868 0.0942078 11.7373 0.120346 11.6154 0.171115C11.4936 0.221883 11.383 0.296278 11.29 0.390006L2.50001 9.19001C2.3624 9.33039 2.26922 9.50822 2.23212 9.70126C2.19501 9.89431 2.21563 10.094 2.29139 10.2754C2.36715 10.4568 2.49469 10.6118 2.65807 10.7211C2.82145 10.8305 3.01343 10.8892 3.21001 10.89H8.21001C8.27631 10.89 8.3399 10.9163 8.38678 10.9632C8.43367 11.0101 8.46001 11.0737 8.46001 11.14V22.89C8.46001 23.1552 8.56536 23.4096 8.7529 23.5971C8.94044 23.7846 9.19479 23.89 9.46001 23.89H14.46C14.7252 23.89 14.9796 23.7846 15.1671 23.5971C15.3547 23.4096 15.46 23.1552 15.46 22.89V11.14C15.46 11.0737 15.4863 11.0101 15.5332 10.9632C15.5801 10.9163 15.6437 10.89 15.71 10.89H20.71C20.9066 10.8892 21.0986 10.8305 21.2619 10.7211C21.4253 10.6118 21.5529 10.4568 21.6286 10.2754C21.7044 10.094 21.725 9.89431 21.6879 9.70126C21.6508 9.50822 21.5576 9.33039 21.42 9.19001H21.5Z" fill="currentColor"/>
</svg>
