<svg width="24" height="24" viewBox="0 0 24 24" fill="none" xmlns="http://www.w3.org/2000/svg">
<path fill-rule="evenodd" clip-rule="evenodd" d="M12 24C18.6274 24 24 18.6274 24 12C24 5.37258 18.6274 0 12 0C5.37258 0 0 5.37258 0 12C0 18.6274 5.37258 24 12 24ZM4.98963 14.8638C4.67013 14.5402 4.67013 14.0198 4.98963 13.6961L6.25055 12.3465C6.57426 12.027 7.09459 12.027 7.41829 12.3465L9.47446 14.356L16.4846 4.96305C16.8067 4.63976 17.3302 4.63976 17.6524 4.96305L19.0076 6.0851C19.3308 6.40727 19.3308 6.93075 19.0076 7.25284L10.3773 19.037C10.0551 19.3603 9.53163 19.3603 9.20953 19.037L4.98963 14.8638Z" fill="currentColor"/>
</svg>
