<svg width="24" height="24" viewBox="0 0 24 24" fill="none" xmlns="http://www.w3.org/2000/svg">
<path d="M20.8538 3.90992C20.8005 3.85693 20.7335 3.81976 20.6604 3.80255C20.5872 3.78533 20.5107 3.78875 20.4394 3.81242L1.75189 11.5312C1.67235 11.5636 1.60513 11.6203 1.55988 11.6933C1.51462 11.7663 1.49367 11.8518 1.50001 11.9374C1.50213 12.0183 1.52788 12.0968 1.57408 12.1632C1.62029 12.2296 1.68492 12.2811 1.76001 12.3112L6.90314 14.3018C6.96547 14.3257 7.03258 14.3344 7.09896 14.3274C7.16534 14.3203 7.22909 14.2976 7.28501 14.2612L14.11 9.38617C14.193 9.31721 14.2999 9.28404 14.4074 9.29394C14.5148 9.30385 14.6139 9.35602 14.6828 9.43898C14.7518 9.52194 14.785 9.6289 14.7751 9.73632C14.7651 9.84375 14.713 9.94284 14.63 10.0118L8.94251 15.4962C8.86474 15.5737 8.82091 15.6789 8.82064 15.7887V21.2812C8.81974 21.3705 8.8489 21.4575 8.90342 21.5282C8.95795 21.599 9.03467 21.6493 9.12126 21.6712C9.20708 21.6955 9.29857 21.6903 9.38107 21.6564C9.46358 21.6225 9.53232 21.5619 9.57626 21.4843L12.1519 17.0805C12.1776 17.0352 12.2198 17.0014 12.2697 16.9863C12.3196 16.9712 12.3734 16.9758 12.42 16.9993L17.1569 19.6074C17.2122 19.638 17.2739 19.6552 17.337 19.6577C17.4002 19.6603 17.4631 19.648 17.5206 19.622C17.5782 19.596 17.6289 19.5568 17.6688 19.5078C17.7086 19.4587 17.7364 19.401 17.75 19.3393L21 4.30804C21.0147 4.23465 21.0088 4.15863 20.983 4.08838C20.9572 4.01813 20.9124 3.95637 20.8538 3.90992Z" fill="currentColor"/>
</svg>
