<svg width="24" height="24" viewBox="0 0 24 24" fill="none" xmlns="http://www.w3.org/2000/svg">
<path d="M12 8.5C10.5421 8.50264 9.14471 9.08295 8.11383 10.1138C7.08295 11.1447 6.50264 12.5421 6.5 14V17.5C6.5 17.6326 6.55268 17.7598 6.64645 17.8536C6.74021 17.9473 6.86739 18 7 18H8.81C8.87298 17.9998 8.93372 18.0234 8.98007 18.066C9.02641 18.1087 9.05496 18.1672 9.06 18.23L9.5 23.54C9.51008 23.6656 9.56717 23.7827 9.65987 23.868C9.75257 23.9532 9.87404 24.0004 10 24H14C14.126 24.0004 14.2474 23.9532 14.3401 23.868C14.4328 23.7827 14.4899 23.6656 14.5 23.54L14.94 18.23C14.945 18.1672 14.9736 18.1087 15.0199 18.066C15.0663 18.0234 15.127 17.9998 15.19 18H17C17.1326 18 17.2598 17.9473 17.3536 17.8536C17.4473 17.7598 17.5 17.6326 17.5 17.5V14C17.4974 12.5421 16.917 11.1447 15.8862 10.1138C14.8553 9.08295 13.4579 8.50264 12 8.5Z" fill="currentColor"/>
<path d="M8.5 3.5C8.5 3.95963 8.59053 4.41475 8.76642 4.83939C8.94231 5.26403 9.20012 5.64987 9.52513 5.97487C9.85013 6.29988 10.236 6.55769 10.6606 6.73358C11.0852 6.90947 11.5404 7 12 7C12.4596 7 12.9148 6.90947 13.3394 6.73358C13.764 6.55769 14.1499 6.29988 14.4749 5.97487C14.7999 5.64987 15.0577 5.26403 15.2336 4.83939C15.4095 4.41475 15.5 3.95963 15.5 3.5C15.5 3.04037 15.4095 2.58525 15.2336 2.16061C15.0577 1.73597 14.7999 1.35013 14.4749 1.02513C14.1499 0.700121 13.764 0.442313 13.3394 0.266422C12.9148 0.0905301 12.4596 0 12 0C11.5404 0 11.0852 0.0905301 10.6606 0.266422C10.236 0.442313 9.85013 0.700121 9.52513 1.02513C9.20012 1.35013 8.94231 1.73597 8.76642 2.16061C8.59053 2.58525 8.5 3.04037 8.5 3.5Z" fill="currentColor"/>
</svg>
