<svg width="24" height="24" viewBox="0 0 24 24" fill="none" xmlns="http://www.w3.org/2000/svg">
<path d="M21.0611 16.2475L18.9816 14.168C18.7604 13.9422 18.4963 13.7628 18.2048 13.6403C17.9133 13.5178 17.6003 13.4547 17.2841 13.4547C16.968 13.4547 16.655 13.5178 16.3635 13.6403C16.072 13.7628 15.8079 13.9422 15.5866 14.168L15.1707 14.5839C13.0761 12.8359 11.1417 10.9044 9.39063 8.81232L9.81501 8.38794C10.2649 7.93755 10.5176 7.327 10.5176 6.69041C10.5176 6.05382 10.2649 5.44327 9.81501 4.99289L7.761 2.93888C7.30635 2.49712 6.6974 2.25 6.06347 2.25C5.42955 2.25 4.8206 2.49712 4.36595 2.93888L3.22861 4.07622C2.6835 4.62857 2.34407 5.35099 2.26685 6.12317C2.18964 6.89536 2.37929 7.67069 2.80422 8.32004C6.19607 13.4264 10.5736 17.8039 15.68 21.1958C16.3293 21.6207 17.1046 21.8104 17.8768 21.7331C18.649 21.6559 19.3714 21.3165 19.9238 20.7714L21.0611 19.6425C21.287 19.4213 21.4664 19.1572 21.5889 18.8657C21.7113 18.5742 21.7744 18.2612 21.7744 17.945C21.7744 17.6288 21.7113 17.3158 21.5889 17.0244C21.4664 16.7329 21.287 16.4688 21.0611 16.2475Z" fill="currentColor"/>
</svg>
