<svg width="24" height="24" viewBox="0 0 24 24" fill="none" xmlns="http://www.w3.org/2000/svg">
<path d="M12 0C9.87827 0 7.84344 0.842855 6.34315 2.34315C4.84285 3.84344 4 5.87827 4 8C4 11.51 9 20 11.15 23.52C11.2397 23.6647 11.3648 23.7841 11.5136 23.8669C11.6623 23.9498 11.8298 23.9932 12 23.9932C12.1702 23.9932 12.3377 23.9498 12.4864 23.8669C12.6352 23.7841 12.7603 23.6647 12.85 23.52C15 20 20 11.51 20 8C20 5.87827 19.1571 3.84344 17.6569 2.34315C16.1566 0.842855 14.1217 0 12 0ZM12 11.5C11.3078 11.5 10.6311 11.2947 10.0555 10.9101C9.47993 10.5256 9.03133 9.97893 8.76642 9.33939C8.50151 8.69985 8.4322 7.99612 8.56725 7.31718C8.7023 6.63825 9.03564 6.01461 9.52513 5.52513C10.0146 5.03564 10.6382 4.7023 11.3172 4.56725C11.9961 4.4322 12.6999 4.50152 13.3394 4.76642C13.9789 5.03133 14.5256 5.47993 14.9101 6.0555C15.2947 6.63108 15.5 7.30777 15.5 8C15.5 8.92826 15.1313 9.8185 14.4749 10.4749C13.8185 11.1313 12.9283 11.5 12 11.5Z" fill="currentColor"/>
</svg>
