<svg width="24" height="24" viewBox="0 0 24 24" fill="none" xmlns="http://www.w3.org/2000/svg">
<path d="M12 0C9.62663 0 7.30655 0.703788 5.33316 2.02236C3.35977 3.34094 1.8217 5.21509 0.913451 7.4078C0.00519943 9.60051 -0.232441 12.0133 0.230582 14.3411C0.693605 16.6689 1.83649 18.8071 3.51472 20.4853C5.19295 22.1635 7.33115 23.3064 9.65892 23.7694C11.9867 24.2324 14.3995 23.9948 16.5922 23.0866C18.7849 22.1783 20.6591 20.6402 21.9776 18.6668C23.2962 16.6935 24 14.3734 24 12C24 8.8174 22.7357 5.76516 20.4853 3.51472C18.2349 1.26428 15.1826 0 12 0ZM12 19C11.7033 19 11.4133 18.912 11.1667 18.7472C10.92 18.5824 10.7277 18.3481 10.6142 18.074C10.5007 17.7999 10.4709 17.4983 10.5288 17.2074C10.5867 16.9164 10.7296 16.6491 10.9393 16.4393C11.1491 16.2296 11.4164 16.0867 11.7074 16.0288C11.9983 15.9709 12.2999 16.0007 12.574 16.1142C12.8481 16.2277 13.0824 16.42 13.2472 16.6666C13.412 16.9133 13.5 17.2033 13.5 17.5C13.5 17.8978 13.342 18.2794 13.0607 18.5607C12.7794 18.842 12.3978 19 12 19ZM13.6 12.92C13.4211 12.9981 13.269 13.1268 13.1624 13.2902C13.0558 13.4537 12.9993 13.6448 13 13.84C13 14.1052 12.8946 14.3596 12.7071 14.5471C12.5196 14.7346 12.2652 14.84 12 14.84C11.7348 14.84 11.4804 14.7346 11.2929 14.5471C11.1054 14.3596 11 14.1052 11 13.84C10.9999 13.2562 11.1702 12.685 11.4899 12.1966C11.8096 11.7081 12.2649 11.3235 12.8 11.09C13.1302 10.9459 13.4154 10.7152 13.6253 10.4225C13.8353 10.1297 13.9622 9.78561 13.9928 9.42663C14.0233 9.06764 13.9564 8.70707 13.7989 8.38301C13.6415 8.05894 13.3994 7.78342 13.0983 7.58556C12.7973 7.3877 12.4483 7.27485 12.0884 7.25893C11.7284 7.24301 11.3709 7.32461 11.0535 7.49511C10.7361 7.66561 10.4707 7.91868 10.2853 8.22757C10.0998 8.53647 10.0013 8.88972 10 9.25C10 9.51522 9.89465 9.76957 9.70711 9.95711C9.51958 10.1446 9.26522 10.25 9.00001 10.25C8.73479 10.25 8.48044 10.1446 8.2929 9.95711C8.10536 9.76957 8.00001 9.51522 8.00001 9.25C8.00072 8.52901 8.19629 7.82161 8.56603 7.20264C8.93577 6.58368 9.46594 6.07615 10.1004 5.73376C10.7349 5.39137 11.4502 5.22684 12.1705 5.25758C12.8909 5.28832 13.5895 5.51318 14.1925 5.90838C14.7956 6.30358 15.2806 6.85442 15.5962 7.50264C15.9119 8.15085 16.0465 8.87234 15.9858 9.59077C15.9251 10.3092 15.6713 10.9979 15.2513 11.5839C14.8314 12.17 14.2608 12.6316 13.6 12.92Z" fill="currentColor"/>
</svg>
