<svg width="24" height="24" viewBox="0 0 24 24" fill="none" xmlns="http://www.w3.org/2000/svg">
<path d="M17.46 13.52C14.88 13.15 12.86 10.89 12.86 8.21998C12.86 5.15998 15.45 2.69998 18.56 2.90998C21.47 3.10998 23.57 5.76998 23.5 8.67998C23.24 19.64 13.82 21.08 13.73 21.09C13.36 21.14 13.02 20.93 12.91 20.58C12.8 20.23 12.94 19.86 13.25 19.67C16.95 17.56 17.44 14.75 17.47 13.51L17.46 13.52Z" fill="currentColor"/>
<path d="M5.1 13.52C2.52 13.15 0.5 10.89 0.5 8.21998C0.5 5.15998 3.09 2.69998 6.2 2.90998C9.11 3.10998 11.21 5.76998 11.14 8.67998C10.88 19.64 1.46 21.08 1.37 21.09C1 21.14 0.660003 20.93 0.550003 20.58C0.440003 20.23 0.579999 19.86 0.889999 19.67C4.59 17.56 5.08 14.75 5.11 13.51L5.1 13.52Z" fill="currentColor"/>
</svg>
