<svg width="24" height="24" viewBox="0 0 24 24" fill="none" xmlns="http://www.w3.org/2000/svg">
<path d="M6.53999 10.48C9.11999 10.85 11.14 13.11 11.14 15.78C11.14 18.84 8.54999 21.3 5.43999 21.09C2.52999 20.89 0.42999 18.23 0.49999 15.32C0.75999 4.35997 10.18 2.91997 10.27 2.90997C10.64 2.85997 10.98 3.06997 11.09 3.41997C11.2 3.76997 11.06 4.13997 10.75 4.32997C7.04999 6.43997 6.55999 9.24997 6.52999 10.49L6.53999 10.48Z" fill="currentColor"/>
<path d="M18.9 10.48C21.48 10.85 23.5 13.11 23.5 15.78C23.5 18.84 20.91 21.3 17.8 21.09C14.89 20.89 12.79 18.23 12.86 15.32C13.12 4.35997 22.54 2.91997 22.63 2.90997C23 2.85997 23.34 3.06997 23.45 3.41997C23.56 3.76997 23.42 4.13997 23.11 4.32997C19.41 6.43997 18.92 9.24997 18.89 10.49L18.9 10.48Z" fill="currentColor"/>
</svg>
