<svg id="a" data-name="Layer_1" xmlns="http://www.w3.org/2000/svg" viewBox="0 0 24 24"><path id="ldt-background" data-name="Background" d="M15.52 14.81c-3.5 0-6.33-2.84-6.33-6.33 0-.81.15-1.61.45-2.35a6.335 6.335 0 0 0-3.52 8.23 6.335 6.335 0 0 0 8.23 3.52c1.6-.64 2.87-1.91 3.52-3.52-.75.3-1.55.46-2.36.45Z" fill="currentColor"/><g id="ldt-icon" data-name="Stroke" fill="none" stroke="currentColor" stroke-linecap="round" stroke-linejoin="round" stroke-width="1.5"><path d="M12 5.67V1.45M7.53 7.53 4.55 4.55M5.67 12H1.45M7.53 16.47l-2.98 2.98M12 18.33v4.22M16.47 16.47l2.98 2.98M18.33 12h4.22M16.47 7.53l2.98-2.98M5.67 12a6.331 6.331 0 1 0 12.662-.002A6.331 6.331 0 0 0 5.67 12"/><path id="ldt-line" data-name="Line" d="M17.87 14.36c-.75.3-1.55.46-2.36.45-3.5 0-6.33-2.84-6.33-6.33 0-.81.15-1.61.45-2.35"/></g></svg>