<svg viewBox="0 0 24 24" fill="none" xmlns="http://www.w3.org/2000/svg"><path d="M10.438 9.786h1.406a.47.47 0 0 1 .469.469v5.437a.937.937 0 0 0 .937.938h1.406-4.219m1.559-10.214a.246.246 0 0 0-.241.255.255.255 0 0 0 .254.245h.005a.246.246 0 0 0 .24-.255.255.255 0 0 0-.25-.245H12m0 15.897c5.695 0 10.313-4.617 10.313-10.312 0-5.696-4.618-10.313-10.313-10.313S1.688 6.305 1.688 12.001c0 5.695 4.617 10.312 10.312 10.312" stroke="currentColor" stroke-width="1.5" stroke-linecap="round" stroke-linejoin="round"/></svg>