<svg xmlns="http://www.w3.org/2000/svg" viewBox="0 0 24 24"><title>light-mode-dark-light</title><path d="M12 5.25V.75M7.227 7.227 4.045 4.045M5.25 12H.75M7.227 16.773l-3.182 3.182M12 18.75v4.5M16.773 16.773l3.182 3.182M18.75 12h4.5M16.773 7.227l3.182-3.182M5.25 12a6.75 6.75 0 1 0 13.5 0 6.75 6.75 0 1 0-13.5 0" fill="none" stroke="currentcolor" stroke-linecap="round" stroke-linejoin="round" stroke-width="1.5"/><path d="M15.75 15a6.752 6.752 0 0 1-6.265-9.265 6.751 6.751 0 1 0 8.78 8.78A6.716 6.716 0 0 1 15.75 15Z" fill="none" stroke="currentcolor" stroke-linecap="round" stroke-linejoin="round" stroke-width="1.5"/></svg>