<?xml version="1.0" encoding="UTF-8"?>
<svg id="a" data-name="Layer_1" xmlns="http://www.w3.org/2000/svg" viewBox="0 0 24 24">
  <path id="ldt-background" data-name="Background" d="M15.52,14.81c-3.5,0-6.33-2.84-6.33-6.33,0-.81.15-1.61.45-2.35-3.24,1.3-4.82,4.99-3.52,8.23,1.3,3.24,4.99,4.82,8.23,3.52,1.6-.64,2.87-1.91,3.52-3.52-.75.3-1.55.46-2.36.45Z" fill="currentColor"/>
  <g id="ldt-icon" data-name="Stroke">
    <path d="M12,5.67V1.45" fill="none" stroke="currentColor" stroke-linecap="round" stroke-linejoin="round" stroke-width="1.5"/>
    <path d="M7.53,7.53l-2.98-2.98" fill="none" stroke="currentColor" stroke-linecap="round" stroke-linejoin="round" stroke-width="1.5"/>
    <path d="M5.67,12H1.45" fill="none" stroke="currentColor" stroke-linecap="round" stroke-linejoin="round" stroke-width="1.5"/>
    <path d="M7.53,16.47l-2.98,2.98" fill="none" stroke="currentColor" stroke-linecap="round" stroke-linejoin="round" stroke-width="1.5"/>
    <path d="M12,18.33v4.22" fill="none" stroke="currentColor" stroke-linecap="round" stroke-linejoin="round" stroke-width="1.5"/>
    <path d="M16.47,16.47l2.98,2.98" fill="none" stroke="currentColor" stroke-linecap="round" stroke-linejoin="round" stroke-width="1.5"/>
    <path d="M18.33,12h4.22" fill="none" stroke="currentColor" stroke-linecap="round" stroke-linejoin="round" stroke-width="1.5"/>
    <path d="M16.47,7.53l2.98-2.98" fill="none" stroke="currentColor" stroke-linecap="round" stroke-linejoin="round" stroke-width="1.5"/>
    <path d="M5.67,12c0,3.49,2.83,6.33,6.33,6.33s6.33-2.83,6.33-6.33-2.83-6.33-6.33-6.33-6.33,2.83-6.33,6.33" fill="none" stroke="currentColor" stroke-linecap="round" stroke-linejoin="round" stroke-width="1.5"/>
    <path id="ldt-line" data-name="Line" d="M17.87,14.36c-.75.3-1.55.46-2.36.45-3.5,0-6.33-2.84-6.33-6.33,0-.81.15-1.61.45-2.35" fill="none" stroke="currentColor" stroke-linecap="round" stroke-linejoin="round" stroke-width="1.5"/>
  </g>
</svg>