<svg width="24" height="24" viewBox="0 0 24 24" fill="none" xmlns="http://www.w3.org/2000/svg">
<path d="M17.8405 6.15882C16.7903 5.47388 16.0319 4.37826 15.7955 3.10075C15.7444 2.82439 15.7164 2.54035 15.7164 2.25H12.3638L12.3582 15.6856C12.3015 17.1905 11.0639 18.3981 9.54571 18.3981C9.07416 18.3981 8.6299 18.2799 8.23881 18.0742C7.34188 17.6019 6.72761 16.6616 6.72761 15.58C6.72761 14.0261 7.99184 12.7619 9.54571 12.7619C9.83605 12.7619 10.1138 12.8095 10.3776 12.892V9.46945C10.1054 9.43237 9.82836 9.40928 9.54571 9.40928C6.14342 9.40928 3.375 12.1777 3.375 15.58C3.375 17.6677 4.41814 19.5154 6.0091 20.632C7.01166 21.3358 8.23041 21.75 9.54571 21.75C12.948 21.75 15.7164 18.9823 15.7164 15.5793V8.76632C17.031 9.71012 18.6423 10.2663 20.3808 10.2663V6.91371C19.4447 6.91371 18.5723 6.63526 17.8412 6.15812H17.8405V6.15882Z" fill="currentColor"/>
</svg>
