<svg width="24" height="24" viewBox="0 0 24 24" fill="none" xmlns="http://www.w3.org/2000/svg">
<path d="M12.9783 1.5C8.71385 1.5 4.5 4.34185 4.5 8.94313C4.5 11.8687 6.14504 13.5317 7.14291 13.5317C7.55449 13.5317 7.79257 12.3844 7.79257 12.0602C7.79257 11.6738 6.8066 10.8502 6.8066 9.24171C6.8066 5.90036 9.35021 3.53263 12.642 3.53263C15.4727 3.53263 17.5669 5.14001 17.5669 8.09497C17.5669 10.3015 16.681 14.4406 13.8134 14.4406C12.7785 14.4406 11.8939 13.693 11.8939 12.6212C11.8939 11.0505 12.8996 9.52907 12.8996 7.90795C12.8996 5.15625 9.08859 5.65548 9.08859 8.98087C9.08859 9.67887 9.17562 10.4515 9.48724 11.0873C8.91439 13.556 7.85983 17.4906 7.85983 20.0348C7.85983 20.8202 7.97209 21.593 8.04685 22.3792C8.18796 22.5371 8.11808 22.5205 8.33394 22.4415C10.4288 19.5739 10.2345 18.7562 11.1819 15.0033C11.6935 15.976 13.0153 16.4995 14.0627 16.4995C18.4767 16.4995 20.4592 12.1978 20.4592 8.31973C20.4592 4.19302 16.8934 1.5 12.9783 1.5Z" fill="currentColor"/>
</svg>
