<svg width="24" height="24" viewBox="0 0 24 24" fill="none" xmlns="http://www.w3.org/2000/svg">
<path d="M6.09229 1.125C4.79908 1.125 3.75 2.17235 3.75 3.46555C3.75 4.75876 4.79824 5.83034 6.09055 5.83034C7.38287 5.83034 8.43284 4.75876 8.43284 3.46555C8.43284 2.17324 7.38549 1.125 6.09229 1.125ZM17.5198 7.32955C15.553 7.32955 14.4276 8.35813 13.8878 9.38099H13.8307V7.6048H9.95455V20.625H13.9934V14.1798C13.9934 12.4815 14.1216 10.8404 16.2231 10.8404C18.2946 10.8404 18.3248 12.7768 18.3248 14.2872V20.625H22.3584H22.3636V13.4735C22.3636 9.97414 21.6113 7.32955 17.5198 7.32955ZM4.072 7.6048V20.625H8.1143V7.6048H4.072Z" fill="currentColor"/>
</svg>
