<svg width="24" height="24" viewBox="0 0 24 24" fill="none" xmlns="http://www.w3.org/2000/svg">
<path d="M21.7033 7.0887C21.4699 6.21689 20.7848 5.53177 19.913 5.2984C18.3327 4.875 12 4.875 12 4.875C12 4.875 5.66729 4.875 4.0887 5.2984C3.21689 5.53177 2.53177 6.21689 2.2984 7.0887C1.875 8.66729 1.875 11.9628 1.875 11.9628C1.875 11.9628 1.875 15.2584 2.2984 16.837C2.53177 17.7088 3.21689 18.3939 4.0887 18.6273C5.66729 19.0507 12 19.0507 12 19.0507C12 19.0507 18.3327 19.0507 19.9113 18.6273C20.7831 18.3939 21.4682 17.7088 21.7016 16.837C22.125 15.2584 22.125 11.9628 22.125 11.9628C22.125 11.9628 22.125 8.66729 21.7016 7.0887H21.7033ZM9.97467 15V8.92567L15.2355 11.9628L9.97467 15Z" fill="currentColor"/>
</svg>
