<svg width="24" height="24" viewBox="0 0 24 24" fill="none" xmlns="http://www.w3.org/2000/svg">
<path d="M12 2.25C6.62398 2.25 2.25006 6.62392 2.25006 12C2.25006 13.6787 2.68372 15.3294 3.50611 16.7859L2.26575 21.2116C2.22505 21.357 2.26448 21.513 2.36961 21.6211C2.45057 21.7046 2.56079 21.7499 2.67397 21.7499C2.70789 21.7499 2.74222 21.7457 2.77571 21.7376L7.39465 20.5935C8.80501 21.3506 10.3934 21.7499 12 21.7499C17.3761 21.7499 21.75 17.376 21.75 12C21.75 6.62392 17.3761 2.25 12 2.25ZM16.9047 15.4404C16.6961 16.0178 15.6957 16.5447 15.215 16.6155C14.7834 16.6787 14.2374 16.7058 13.638 16.5176C13.2747 16.4031 12.8084 16.2514 12.2111 15.9966C9.70031 14.9258 8.06062 12.4294 7.93514 12.2645C7.81009 12.0996 6.91309 10.9245 6.91309 9.7083C6.91309 8.4921 7.55956 7.89396 7.78932 7.6464C8.01908 7.39883 8.28996 7.33694 8.45698 7.33694C8.624 7.33694 8.7906 7.33906 8.93685 7.34584C9.09073 7.35347 9.29717 7.28777 9.50022 7.77018C9.70879 8.26531 10.2094 9.48151 10.2713 9.60571C10.3341 9.7295 10.3756 9.87405 10.2925 10.039C10.2094 10.2039 10.1679 10.3069 10.0424 10.4514C9.91693 10.596 9.77958 10.7736 9.66682 10.8847C9.54134 11.008 9.4112 11.1415 9.55703 11.3891C9.70285 11.6367 10.2052 12.4459 10.9496 13.1013C11.9055 13.9432 12.7122 14.2043 12.9623 14.3281C13.2124 14.4519 13.3587 14.4311 13.5045 14.2662C13.6503 14.1009 14.1302 13.5443 14.2968 13.2971C14.4634 13.05 14.6304 13.0907 14.8602 13.1734C15.0899 13.2556 16.3205 13.8533 16.5706 13.9771C16.8208 14.1009 16.9878 14.1628 17.0505 14.2658C17.1133 14.3684 17.1133 14.8635 16.9047 15.4404Z" fill="currentColor"/>
</svg>
