<svg width="24" height="24" viewBox="0 0 24 24" fill="none" xmlns="http://www.w3.org/2000/svg">
<path d="M19.8607 5.53281C17.9787 4.01829 15.0013 3.76156 14.8739 3.75233C14.6763 3.7357 14.4879 3.84652 14.4066 4.02937C14.3992 4.04045 14.3346 4.19006 14.2625 4.42278C15.5074 4.63333 17.0367 5.05629 18.4201 5.91514C18.6417 6.05181 18.7101 6.34363 18.5734 6.56527C18.4829 6.71118 18.3296 6.7906 18.1708 6.7906C18.0858 6.7906 17.999 6.76659 17.9214 6.71857C15.5425 5.24284 12.5726 5.16896 12 5.16896C11.4274 5.16896 8.45565 5.24284 6.07859 6.71857C5.85696 6.85709 5.56513 6.78876 5.42846 6.56712C5.28993 6.34363 5.35827 6.05366 5.57991 5.91514C6.96329 5.05814 8.49259 4.63333 9.73745 4.42463C9.66542 4.19006 9.60078 4.0423 9.59524 4.02937C9.51212 3.84652 9.32558 3.73201 9.1261 3.75233C8.99866 3.76156 6.02134 4.01829 4.11341 5.55313C3.11789 6.47477 1.125 11.8606 1.125 16.5168C1.125 16.5999 1.14716 16.6793 1.1878 16.7513C2.56195 19.1672 6.31316 19.7989 7.16831 19.8266C7.172 19.8266 7.17754 19.8266 7.18308 19.8266C7.33454 19.8266 7.47675 19.7545 7.56541 19.6326L8.42979 18.4432C6.09706 17.8411 4.90576 16.8178 4.83742 16.7569C4.64164 16.5851 4.62317 16.2859 4.79679 16.0901C4.96856 15.8944 5.26777 15.8759 5.46355 16.0477C5.49125 16.0735 7.68546 17.9353 12 17.9353C16.3219 17.9353 18.5161 16.0661 18.5383 16.0477C18.7341 15.8777 19.0314 15.8944 19.2051 16.092C19.3768 16.2878 19.3584 16.5851 19.1626 16.7569C19.0942 16.8178 17.9029 17.8411 15.5702 18.4432L16.4346 19.6326C16.5232 19.7545 16.6655 19.8266 16.8169 19.8266C16.8225 19.8266 16.828 19.8266 16.8317 19.8266C17.6868 19.7989 21.4381 19.1672 22.8122 16.7513C22.8528 16.6793 22.875 16.5999 22.875 16.5168C22.875 11.8606 20.8821 6.47477 19.8607 5.53281ZM8.92663 14.6255C8.01238 14.6255 7.27174 13.7796 7.27174 12.7342C7.27174 11.6888 8.01238 10.8429 8.92663 10.8429C9.84088 10.8429 10.5815 11.6888 10.5815 12.7342C10.5815 13.7796 9.84088 14.6255 8.92663 14.6255ZM15.0734 14.6255C14.1591 14.6255 13.4185 13.7796 13.4185 12.7342C13.4185 11.6888 14.1591 10.8429 15.0734 10.8429C15.9876 10.8429 16.7283 11.6888 16.7283 12.7342C16.7283 13.7796 15.9876 14.6255 15.0734 14.6255Z" fill="currentColor"/>
</svg>
