<svg width="24" height="24" viewBox="0 0 24 24" fill="none" xmlns="http://www.w3.org/2000/svg">
<path d="M6.98719 20.2959L4.50001 22.7822M17.0109 20.2941L19.5 22.7822M8.71876 13.4081H12.4688V7.78313M8.09251 2.89875C7.79866 2.4505 7.41198 2.07057 6.95862 1.78466C6.50526 1.49875 5.99579 1.31353 5.46466 1.24153C4.93353 1.16953 4.39314 1.21242 3.88002 1.3673C3.3669 1.52219 2.89303 1.78546 2.49044 2.1393C2.08786 2.49315 1.76596 2.92932 1.5465 3.41832C1.32705 3.90731 1.21516 4.43774 1.21841 4.97371C1.22165 5.50969 1.33996 6.03872 1.56532 6.52502C1.79069 7.01132 2.11785 7.44356 2.52469 7.7925M15.9075 2.89875C16.2014 2.4505 16.588 2.07057 17.0414 1.78466C17.4948 1.49875 18.0042 1.31353 18.5354 1.24153C19.0665 1.16953 19.6069 1.21242 20.12 1.3673C20.6331 1.52219 21.107 1.78546 21.5096 2.1393C21.9122 2.49315 22.2341 2.92932 22.4535 3.41832C22.673 3.90731 22.7849 4.43774 22.7816 4.97371C22.7784 5.50969 22.6601 6.03872 22.4347 6.52502C22.2093 7.01132 21.8822 7.44356 21.4753 7.7925M3.09376 12.9394C3.09376 15.3015 4.03209 17.5668 5.70234 19.237C7.37258 20.9073 9.63792 21.8456 12 21.8456C14.3621 21.8456 16.6274 20.9073 18.2977 19.237C19.9679 17.5668 20.9063 15.3015 20.9063 12.9394C20.9063 10.5773 19.9679 8.31196 18.2977 6.64171C16.6274 4.97146 14.3621 4.03313 12 4.03313C9.63792 4.03313 7.37258 4.97146 5.70234 6.64171C4.03209 8.31196 3.09376 10.5773 3.09376 12.9394Z" stroke="currentColor" stroke-width="1.5" stroke-linecap="round" stroke-linejoin="round"/>
</svg>
