<svg width="24" height="24" viewBox="0 0 24 24" fill="none" xmlns="http://www.w3.org/2000/svg">
<path d="M14.8125 19.9688C14.8125 20.7147 14.5162 21.43 13.9887 21.9575C13.4613 22.4849 12.7459 22.7812 12 22.7812C11.2541 22.7812 10.5387 22.4849 10.0113 21.9575C9.48382 21.43 9.1875 20.7147 9.1875 19.9688M19.9688 17.1562V11.0625C19.967 9.43748 19.4684 7.85185 18.5399 6.5182C17.6115 5.18455 16.2974 4.16663 14.7741 3.60094C14.6668 2.94205 14.3286 2.34281 13.8201 1.91036C13.3115 1.47792 12.6657 1.24046 11.9981 1.24046C11.3306 1.24046 10.6848 1.47792 10.1762 1.91036C9.66764 2.34281 9.32948 2.94205 9.22219 3.60094C7.69898 4.16645 6.38525 5.18443 5.45735 6.5182C4.52946 7.85198 4.03182 9.43771 4.03125 11.0625V17.1562C4.03125 17.5256 3.9585 17.8913 3.81716 18.2325C3.67582 18.5738 3.46865 18.8838 3.20749 19.145C2.94632 19.4062 2.63628 19.6133 2.29505 19.7547C1.95382 19.896 1.58809 19.9688 1.21875 19.9688H22.7812C22.0353 19.9688 21.32 19.6724 20.7925 19.145C20.2651 18.6175 19.9688 17.9022 19.9688 17.1562Z" stroke="currentColor" stroke-width="1.5" stroke-linecap="round" stroke-linejoin="round"/>
</svg>
