<svg width="24" height="24" viewBox="0 0 24 24" fill="none" xmlns="http://www.w3.org/2000/svg">
<path d="M13.875 20.9062C13.875 21.4035 13.6775 21.8804 13.3258 22.2321C12.9742 22.5837 12.4973 22.7812 12 22.7812C11.5027 22.7812 11.0258 22.5837 10.6742 22.2321C10.3225 21.8804 10.125 21.4035 10.125 20.9062M4.03125 9.1875C4.03125 7.81998 4.5745 6.50846 5.54148 5.54148C6.50846 4.5745 7.81998 4.03125 9.1875 4.03125M1.21875 9.1875C1.21875 7.07406 2.05831 5.04717 3.55274 3.55274C5.04717 2.05831 7.07406 1.21875 9.1875 1.21875M19.9688 9.1875C19.9687 7.81998 19.4255 6.50846 18.4585 5.54148C17.4915 4.5745 16.18 4.03125 14.8125 4.03125M22.7812 9.1875C22.7813 7.07406 21.9417 5.04717 20.4473 3.55274C18.9528 2.05831 16.9259 1.21875 14.8125 1.21875M18.0938 19.0312V14.8125C18.0938 13.6094 17.7376 12.4333 17.0703 11.4323C16.403 10.4313 15.4543 9.65021 14.3438 9.1875C14.3438 8.5659 14.0968 7.96976 13.6573 7.53022C13.2177 7.09068 12.6216 6.84375 12 6.84375C11.3784 6.84375 10.7823 7.09068 10.3427 7.53022C9.90318 7.96976 9.65625 8.5659 9.65625 9.1875C8.54573 9.65021 7.59703 10.4313 6.92969 11.4323C6.26236 12.4333 5.90625 13.6094 5.90625 14.8125V19.0312C5.90625 19.5285 5.70871 20.0054 5.35708 20.3571C5.00544 20.7087 4.52853 20.9062 4.03125 20.9062H19.9688C19.4715 20.9062 18.9946 20.7087 18.6429 20.3571C18.2913 20.0054 18.0938 19.5285 18.0938 19.0312Z" stroke="currentColor" stroke-width="1.5" stroke-linecap="round" stroke-linejoin="round"/>
</svg>
