<svg width="24" height="24" viewBox="0 0 24 24" fill="none" xmlns="http://www.w3.org/2000/svg">
<path d="M12 15.5778V8.71216M11.9957 18.2583C11.8583 18.261 11.7498 18.3758 11.7549 18.5132C11.7602 18.6496 11.8721 18.7576 12.0087 18.7581H12.0137C12.1511 18.7553 12.2596 18.6405 12.2545 18.5032C12.2493 18.3683 12.1397 18.2608 12.0047 18.2583H11.9997M22.3505 21.6505C22.6014 21.9992 22.3808 22.4888 21.9533 22.5318C21.905 22.5367 21.8561 22.5352 21.8081 22.5274H2.19188C1.76784 22.5962 1.42828 22.1801 1.58072 21.7785C1.59797 21.733 1.62113 21.69 1.64953 21.6505L11.5615 1.82728C11.8028 1.34475 12.1972 1.34475 12.4384 1.82728L22.3505 21.6505Z" stroke="currentColor" stroke-width="1.5" stroke-linecap="round" stroke-linejoin="round"/>
</svg>
