<svg width="24" height="24" viewBox="0 0 24 24" fill="none" xmlns="http://www.w3.org/2000/svg">
<path d="M12 13.5V6.6875M12.0094 16.3796C11.9763 16.3801 11.9437 16.3872 11.9134 16.4004C11.8832 16.4135 11.8559 16.4326 11.8331 16.4563C11.8104 16.4801 11.7928 16.5081 11.7812 16.5387C11.7696 16.5694 11.7643 16.602 11.7657 16.6346C11.768 16.7003 11.796 16.7624 11.8437 16.8081C11.8914 16.8538 11.9551 16.8794 12.0215 16.8796C12.0546 16.879 12.0871 16.8719 12.1173 16.8586C12.1475 16.8454 12.1748 16.8264 12.1975 16.8027C12.2202 16.7789 12.2378 16.751 12.2495 16.7204C12.2611 16.6898 12.2665 16.6573 12.2653 16.6246C12.2633 16.5605 12.2366 16.4994 12.1908 16.454C12.145 16.4085 12.0834 16.3819 12.0185 16.3796H12.0134M22.3125 11.8228C22.3195 14.5764 21.2408 17.2218 19.3103 19.1854C17.3799 21.149 14.7533 22.2725 12 22.3125C10.6553 22.3327 9.31995 22.0858 8.07141 21.586C6.82288 21.0862 5.68599 20.3435 4.7267 19.4009C3.7674 18.4584 3.00479 17.3347 2.48308 16.0952C1.96137 14.8556 1.69095 13.5249 1.6875 12.18C1.67981 9.42593 2.75815 6.77985 4.68867 4.81564C6.61918 2.85143 9.24621 1.72746 12 1.6875C13.3449 1.66739 14.6804 1.91452 15.9291 2.41454C17.1778 2.91456 18.3147 3.65753 19.274 4.60036C20.2333 5.54318 20.9959 6.6671 21.5175 7.90691C22.0391 9.14672 22.3093 10.4778 22.3125 11.8228Z" stroke="currentColor" stroke-width="1.5" stroke-linecap="round" stroke-linejoin="round"/>
</svg>
