<svg width="24" height="24" viewBox="0 0 24 24" fill="none" xmlns="http://www.w3.org/2000/svg">
<path d="M12 3L20.5752 11.576C20.6309 11.6317 20.6751 11.6977 20.7053 11.7705C20.7355 11.8433 20.751 11.9212 20.751 12C20.751 12.0788 20.7355 12.1567 20.7053 12.2295C20.6751 12.3023 20.6309 12.3683 20.5752 12.424L12 21M3 3L11.5752 11.576C11.6309 11.6317 11.6751 11.6977 11.7053 11.7705C11.7355 11.8433 11.751 11.9212 11.751 12C11.751 12.0788 11.7355 12.1567 11.7053 12.2295C11.6751 12.3023 11.6309 12.3683 11.5752 12.424L3 21" stroke="currentColor" stroke-width="1.5" stroke-linecap="round" stroke-linejoin="round"/>
</svg>
