<svg width="24" height="24" viewBox="0 0 24 24" fill="none" xmlns="http://www.w3.org/2000/svg">
<path d="M3 11.751L11.576 3.1758C11.6317 3.12007 11.6977 3.07586 11.7705 3.04569C11.8433 3.01553 11.9212 3 12 3C12.0788 3 12.1567 3.01553 12.2295 3.04569C12.3023 3.07586 12.3683 3.12007 12.424 3.1758L21 11.751M3 20.751L11.576 12.1758C11.6317 12.1201 11.6977 12.0759 11.7705 12.0457C11.8433 12.0155 11.9212 12 12 12C12.0788 12 12.1567 12.0155 12.2295 12.0457C12.3023 12.0759 12.3683 12.1201 12.424 12.1758L21 20.751" stroke="currentColor" stroke-width="1.5" stroke-linecap="round" stroke-linejoin="round"/>
</svg>
