<svg width="24" height="24" viewBox="0 0 24 24" fill="none" xmlns="http://www.w3.org/2000/svg">
<path d="M21 12L12.424 20.5752C12.3683 20.6309 12.3023 20.6751 12.2295 20.7053C12.1567 20.7355 12.0788 20.751 12 20.751C11.9212 20.751 11.8433 20.7355 11.7705 20.7053C11.6977 20.6751 11.6317 20.6309 11.576 20.5752L3 12M21 3L12.424 11.5752C12.3683 11.6309 12.3023 11.6751 12.2295 11.7053C12.1567 11.7355 12.0788 11.751 12 11.751C11.9212 11.751 11.8433 11.7355 11.7705 11.7053C11.6977 11.6751 11.6317 11.6309 11.576 11.5752L3 3" stroke="currentColor" stroke-width="1.5" stroke-linecap="round" stroke-linejoin="round"/>
</svg>
