<svg width="24" height="24" viewBox="0 0 24 24" fill="none" xmlns="http://www.w3.org/2000/svg">
<path d="M11.751 21L3.1758 12.424C3.12007 12.3683 3.07586 12.3023 3.04569 12.2295C3.01553 12.1567 3 12.0788 3 12C3 11.9212 3.01553 11.8433 3.04569 11.7705C3.07586 11.6977 3.12007 11.6317 3.1758 11.576L11.751 3M20.751 21L12.1758 12.424C12.1201 12.3683 12.0759 12.3023 12.0457 12.2295C12.0155 12.1567 12 12.0788 12 12C12 11.9212 12.0155 11.8433 12.0457 11.7705C12.0759 11.6977 12.1201 11.6317 12.1758 11.576L20.751 3" stroke="currentColor" stroke-width="1.5" stroke-linecap="round" stroke-linejoin="round"/>
</svg>
