<svg width="24" height="24" viewBox="0 0 24 24" fill="none" xmlns="http://www.w3.org/2000/svg">
<path d="M19.9688 4.03125V21.8438C19.9688 22.0924 19.87 22.3308 19.6942 22.5067C19.5183 22.6825 19.2799 22.7812 19.0312 22.7812H4.96875C4.72011 22.7812 4.48165 22.6825 4.30584 22.5067C4.13002 22.3308 4.03125 22.0924 4.03125 21.8438V4.03125M7.78125 4.03125V2.15625C7.78125 1.90761 7.88002 1.66915 8.05584 1.49334C8.23165 1.31752 8.47011 1.21875 8.71875 1.21875H15.2812C15.5299 1.21875 15.7683 1.31752 15.9442 1.49334C16.12 1.66915 16.2188 1.90761 16.2188 2.15625V4.03125M1.21875 4.03125H22.7812M7.78125 7.3125V18.5625M12 7.3125V18.5625M16.2188 7.3125V18.5625" stroke="currentColor" stroke-width="1.5" stroke-linecap="round" stroke-linejoin="round"/>
</svg>
