<svg width="24" height="24" viewBox="0 0 24 24" fill="none" xmlns="http://www.w3.org/2000/svg">
<path d="M4.5 9.65625L12 6.375L19.5 9.65625M4.5 9.65625L12 12.9375M4.5 9.65625V16.6875M12 12.9375L19.5 9.65625M12 12.9375V21.8438M19.5 9.65625V16.6875M7.36781 19.8169L12 21.8438M12 21.8438L16.6322 19.8169M10.125 3.09375L12 1.21875M12 1.21875L13.875 3.09375M12 1.21875V4.5M1.6875 19.9688V22.7812M1.6875 22.7812H4.5M1.6875 22.7812L5.90625 18.5625M22.3125 19.9688V22.7812M22.3125 22.7812H19.5M22.3125 22.7812L18.0938 18.5625" stroke="currentColor" stroke-width="1.5" stroke-linecap="round" stroke-linejoin="round"/>
</svg>
