<svg width="24" height="24" viewBox="0 0 24 24" fill="none" xmlns="http://www.w3.org/2000/svg">
<path d="M12 8.69063V22.7812M12 8.69063L22.5281 5.00625M12 8.69063L1.47187 5.00625M22.0781 4.73438C22.2844 4.78752 22.4664 4.90932 22.5942 5.07973C22.722 5.25013 22.788 5.45898 22.7812 5.67188V18.3281C22.7818 18.5247 22.7205 18.7164 22.6061 18.8762C22.4917 19.036 22.33 19.1559 22.1437 19.2188L12.3094 22.7344C12.1091 22.8044 11.8909 22.8044 11.6906 22.7344L1.8375 19.2281C1.65631 19.1626 1.4997 19.0429 1.38898 18.8852C1.27827 18.7275 1.21883 18.5395 1.21875 18.3469V5.64375C1.21201 5.43085 1.27797 5.22201 1.40578 5.0516C1.53358 4.8812 1.7156 4.7594 1.92187 4.70625L11.7656 1.24688C11.9196 1.2095 12.0804 1.2095 12.2344 1.24688L22.0781 4.73438Z" stroke="currentColor" stroke-width="1.5" stroke-linecap="round" stroke-linejoin="round"/>
</svg>
