<svg width="24" height="24" viewBox="0 0 24 24" fill="none" xmlns="http://www.w3.org/2000/svg">
<path d="M1.5375 22.4625L7.6875 16.3125M7.6875 16.3125H22.5187M7.6875 16.3125V1.48125M16.3125 22.5187V7.6875M16.3125 7.6875L22.4625 1.5375M16.3125 7.6875H1.48125M6.92812 1.97812C7.44719 1.51689 8.10939 1.2487 8.80312 1.21875H21.7406C22.0192 1.23076 22.2826 1.34934 22.4762 1.54999C22.6699 1.75064 22.7791 2.01802 22.7812 2.29688V15.2344C22.7513 15.9281 22.4831 16.5903 22.0219 17.1094L17.0719 22.0594C16.5528 22.5206 15.8906 22.7888 15.1969 22.8188H2.29687C2.15245 22.8176 2.00972 22.7876 1.877 22.7306C1.74428 22.6737 1.62424 22.5909 1.52387 22.487C1.42351 22.3832 1.34484 22.2604 1.29245 22.1258C1.24006 21.9912 1.21501 21.8475 1.21875 21.7031V8.76562C1.24869 8.07189 1.51689 7.40969 1.97812 6.89062L6.92812 1.97812Z" stroke="currentColor" stroke-width="1.5" stroke-linecap="round" stroke-linejoin="round"/>
</svg>
