<svg width="24" height="24" viewBox="0 0 24 24" fill="none" xmlns="http://www.w3.org/2000/svg">
<path d="M8.71875 8.71875H15.2812M8.71875 11.5312H15.2812M8.71875 14.3438H12.9375M18.0938 19.0312H5.90625M18.0938 4.96875H5.90625M10.5938 3.09375H13.4062M16.2188 1.21875H7.78125C7.28397 1.21875 6.80706 1.41629 6.45542 1.76792C6.10379 2.11956 5.90625 2.59647 5.90625 3.09375V20.9062C5.90625 21.4035 6.10379 21.8804 6.45542 22.2321C6.80706 22.5837 7.28397 22.7812 7.78125 22.7812H16.2188C16.716 22.7812 17.1929 22.5837 17.5446 22.2321C17.8962 21.8804 18.0938 21.4035 18.0938 20.9062V3.09375C18.0938 2.59647 17.8962 2.11956 17.5446 1.76792C17.1929 1.41629 16.716 1.21875 16.2188 1.21875Z" stroke="currentColor" stroke-width="1.5" stroke-linecap="round" stroke-linejoin="round"/>
</svg>
