<svg width="24" height="24" viewBox="0 0 24 24" fill="none" xmlns="http://www.w3.org/2000/svg">
<path d="M5.98125 4.96876C6.0748 4.69135 6.25426 4.45095 6.49362 4.28238C6.73298 4.11382 7.0198 4.02586 7.3125 4.03126H21.375C21.5654 4.0361 21.753 4.07858 21.927 4.15625C22.1009 4.23392 22.2577 4.34525 22.3885 4.48381C22.5192 4.62237 22.6212 4.78543 22.6886 4.96359C22.756 5.14175 22.7875 5.33149 22.7812 5.52188V16.6031C22.7875 16.7935 22.756 16.9833 22.6886 17.1614C22.6212 17.3396 22.5192 17.5026 22.3885 17.6412C22.2577 17.7798 22.1009 17.8911 21.927 17.9688C21.753 18.0464 21.5654 18.0889 21.375 18.0938H8.71875M10.125 19.9688H18.5625M14.3438 18.0938V19.9688M13.4062 15.2813H22.7812M4.03125 9.65626V7.78126C4.03125 7.53261 4.13002 7.29416 4.30584 7.11834C4.48165 6.94253 4.72011 6.84376 4.96875 6.84376H10.5938C10.8424 6.84376 11.0808 6.94253 11.2567 7.11834C11.4325 7.29416 11.5312 7.53261 11.5312 7.78126V15.2813C11.5312 15.5299 11.4325 15.7684 11.2567 15.9442C11.0808 16.12 10.8424 16.2188 10.5938 16.2188H8.71875M8.71875 14.3438H11.5312M1.21875 18.0938H6.84375M2.15625 11.5313H5.90625C5.90625 11.5313 6.84375 11.5313 6.84375 12.4688V19.0313C6.84375 19.0313 6.84375 19.9688 5.90625 19.9688H2.15625C2.15625 19.9688 1.21875 19.9688 1.21875 19.0313V12.4688C1.21875 12.4688 1.21875 11.5313 2.15625 11.5313Z" stroke="currentColor" stroke-width="1.5" stroke-linecap="round" stroke-linejoin="round"/>
</svg>
