<svg width="24" height="24" viewBox="0 0 24 24" fill="none" xmlns="http://www.w3.org/2000/svg">
<path d="M18.0938 12.9375C19.9688 12.9375 19.9688 11.0625 19.9688 11.0625V3.5625C19.9688 1.6875 18.0938 1.6875 18.0938 1.6875H5.90626C4.03126 1.6875 4.03126 3.5625 4.03126 3.5625V11.0625C4.03126 12.9375 5.90626 12.9375 5.90626 12.9375M18.0938 12.9375H5.90626M18.0938 12.9375C18.642 12.9374 19.1768 13.1074 19.6243 13.4241C20.0718 13.7408 20.41 14.1886 20.5922 14.7056L22.7128 20.7122C22.7767 20.8933 22.7962 21.0871 22.7697 21.2773C22.7432 21.4675 22.6715 21.6485 22.5605 21.8053C22.4496 21.962 22.3027 22.0899 22.1321 22.1782C21.9616 22.2664 21.7724 22.3125 21.5803 22.3125H2.41969C2.22766 22.3125 2.03843 22.2664 1.86787 22.1782C1.69732 22.0899 1.55041 21.962 1.43948 21.8053C1.32855 21.6485 1.25683 21.4675 1.23033 21.2773C1.20383 21.0871 1.22333 20.8933 1.28719 20.7122L3.40688 14.7056C3.5894 14.1886 3.9278 13.7408 4.37544 13.4242C4.82308 13.1075 5.35793 12.9375 5.90626 12.9375M5.90157 15.75H6.83907M8.71407 15.75H9.65157M14.3391 15.75H15.2766M17.1516 15.75H18.0891M11.5266 15.75H12.4641M4.96407 17.625H5.90157M7.77657 17.625H16.2141M18.0891 17.625H19.0266M15.2813 22.3125H8.71876L9.65626 19.5H14.3438L15.2813 22.3125Z" stroke="currentColor" stroke-width="1.5" stroke-linecap="round" stroke-linejoin="round"/>
</svg>
