<svg width="24" height="24" viewBox="0 0 24 24" fill="none" xmlns="http://www.w3.org/2000/svg">
<path d="M10.5938 16.2188V13.875C10.5938 13.502 10.7419 13.1444 11.0056 12.8806C11.2694 12.6169 11.627 12.4688 12 12.4688C12.373 12.4688 12.7306 12.6169 12.9944 12.8806C13.2581 13.1444 13.4062 13.502 13.4062 13.875V16.2188M8.71875 10.7644V16.2188H15.2812V10.7644M6.84375 12.4688L12 7.78125L17.1562 12.4688M5.90625 4.03125H18.0938C18.0938 4.03125 19.9688 4.03125 19.9688 5.90625V18.0938C19.9688 18.0938 19.9688 19.9688 18.0938 19.9688H5.90625C5.90625 19.9688 4.03125 19.9688 4.03125 18.0938V5.90625C4.03125 5.90625 4.03125 4.03125 5.90625 4.03125ZM16.2188 4.03125H7.78125L8.71875 1.21875H15.2812L16.2188 4.03125ZM7.78125 19.9688H16.2188L15.2812 22.7812H8.71875L7.78125 19.9688Z" stroke="currentColor" stroke-width="1.5" stroke-linecap="round" stroke-linejoin="round"/>
</svg>
