<svg width="24" height="24" viewBox="0 0 24 24" fill="none" xmlns="http://www.w3.org/2000/svg">
<path d="M20.9062 22.7812V4.03125C20.9062 3.28533 20.6099 2.56996 20.0825 2.04251C19.555 1.51507 18.8397 1.21875 18.0938 1.21875H5.90625M5.90625 1.21875C5.16033 1.21875 4.44496 1.51507 3.91751 2.04251C3.39007 2.56996 3.09375 3.28533 3.09375 4.03125M5.90625 1.21875H14.3438V4.96875C14.3438 5.33809 14.271 5.70382 14.1297 6.04505C13.9883 6.38628 13.7812 6.69632 13.52 6.95749C13.2588 7.21865 12.9488 7.42582 12.6075 7.56716C12.2663 7.7085 11.9006 7.78125 11.5312 7.78125H3.09375V4.03125M3.09375 4.03125V22.7812M4.96875 4.5C4.96875 4.87296 5.11691 5.23065 5.38063 5.49437C5.64435 5.75809 6.00204 5.90625 6.375 5.90625C6.74796 5.90625 7.10565 5.75809 7.36937 5.49437C7.63309 5.23065 7.78125 4.87296 7.78125 4.5C7.78125 4.12704 7.63309 3.76935 7.36937 3.50563C7.10565 3.24191 6.74796 3.09375 6.375 3.09375C6.00204 3.09375 5.64435 3.24191 5.38063 3.50563C5.11691 3.76935 4.96875 4.12704 4.96875 4.5ZM9.65625 4.5C9.65625 4.87296 9.80441 5.23065 10.0681 5.49437C10.3319 5.75809 10.6895 5.90625 11.0625 5.90625C11.4355 5.90625 11.7931 5.75809 12.0569 5.49437C12.3206 5.23065 12.4688 4.87296 12.4688 4.5C12.4688 4.12704 12.3206 3.76935 12.0569 3.50563C11.7931 3.24191 11.4355 3.09375 11.0625 3.09375C10.6895 3.09375 10.3319 3.24191 10.0681 3.50563C9.80441 3.76935 9.65625 4.12704 9.65625 4.5Z" stroke="currentColor" stroke-width="1.5" stroke-linecap="round" stroke-linejoin="round"/>
</svg>
