<svg width="24" height="24" viewBox="0 0 24 24" fill="none" xmlns="http://www.w3.org/2000/svg">
<path d="M8.71875 22.7812H2.15625C1.90761 22.7812 1.66915 22.6825 1.49334 22.5067C1.31752 22.3308 1.21875 22.0924 1.21875 21.8438V2.15625C1.21875 1.90761 1.31752 1.66915 1.49334 1.49334C1.66915 1.31752 1.90761 1.21875 2.15625 1.21875H14.6184C14.8671 1.2188 15.1055 1.31761 15.2812 1.49344L18.7566 4.96875C18.9324 5.14452 19.0312 5.38294 19.0312 5.63156V8.71875M22.2 14.925L15.0469 22.0781L11.5312 22.7812L12.2344 19.2656L19.3875 12.1125C19.5716 11.9281 19.7902 11.7819 20.0308 11.6821C20.2715 11.5823 20.5295 11.5309 20.79 11.5309C21.0505 11.5309 21.3085 11.5823 21.5492 11.6821C21.7898 11.7819 22.0084 11.9281 22.1925 12.1125L22.2 12.12C22.3844 12.3041 22.5306 12.5227 22.6304 12.7633C22.7302 13.004 22.7816 13.262 22.7816 13.5225C22.7816 13.783 22.7302 14.041 22.6304 14.2817C22.5306 14.5223 22.3844 14.7409 22.2 14.925Z" stroke="currentColor" stroke-width="1.5" stroke-linecap="round" stroke-linejoin="round"/>
</svg>
