<svg width="24" height="24" viewBox="0 0 24 24" fill="none" xmlns="http://www.w3.org/2000/svg">
<path d="M13.1906 11.5781C10.2796 12.3824 7.55144 13.7417 5.15624 15.5812L1.50937 18.6937M15.5344 19.0781C13.9607 19.9718 12.1876 20.4554 10.3781 20.4844C8.89914 20.4825 7.45842 20.0142 6.2609 19.1463C5.06338 18.2783 4.17005 17.0549 3.70796 15.6499C3.24588 14.245 3.23858 12.7301 3.68711 11.3208C4.13563 9.91145 5.01714 8.67944 6.20624 7.8C6.20624 7.8 8.50312 5.48437 14.1281 5.48437C16.7259 5.61435 19.3028 4.96113 21.525 3.60937C21.5942 3.57244 21.6715 3.55312 21.75 3.55312C21.8285 3.55312 21.9057 3.57244 21.975 3.60937C22.0463 3.63902 22.1087 3.6865 22.1563 3.74725C22.2039 3.808 22.2351 3.87997 22.2469 3.95625C22.6781 6.44062 23.4094 14.7469 15.5344 19.0781Z" stroke="currentColor" stroke-width="1.5" stroke-linecap="round" stroke-linejoin="round"/>
</svg>
