<svg width="24" height="24" viewBox="0 0 24 24" fill="none" xmlns="http://www.w3.org/2000/svg">
<path d="M16.2188 12C16.2188 13.1189 15.7743 14.1919 14.9831 14.9831C14.1919 15.7743 13.1189 16.2187 12 16.2187C10.8811 16.2187 9.80807 15.7743 9.0169 14.9831C8.22574 14.1919 7.78126 13.1189 7.78126 12C7.78126 10.8811 8.22574 9.80806 9.0169 9.01689C9.80807 8.22572 10.8811 7.78125 12 7.78125C13.1189 7.78125 14.1919 8.22572 14.9831 9.01689C15.7743 9.80806 16.2188 10.8811 16.2188 12ZM16.2188 12V12.9375C16.2188 13.8077 16.5645 14.6423 17.1798 15.2577C17.7952 15.873 18.6298 16.2187 19.5 16.2187C20.3703 16.2187 21.2049 15.873 21.8202 15.2577C22.4356 14.6423 22.7813 13.8077 22.7813 12.9375V12C22.7795 9.58935 21.9705 7.24872 20.4833 5.35148C18.9961 3.45425 16.9164 2.10969 14.5759 1.53228C12.2355 0.954881 9.76903 1.1779 7.57008 2.16575C5.37113 3.15361 3.56634 4.84941 2.44359 6.98264C1.32083 9.11587 0.944801 11.5636 1.37547 13.9355C1.80614 16.3074 3.01871 18.4667 4.81975 20.0691C6.62078 21.6714 8.90654 22.6244 11.3124 22.7762C13.7183 22.9279 16.1057 22.2696 18.0938 20.9062" stroke="currentColor" stroke-width="1.5" stroke-linecap="round" stroke-linejoin="round"/>
</svg>
