<svg width="24" height="24" viewBox="0 0 24 24" fill="none" xmlns="http://www.w3.org/2000/svg">
<path d="M22.7813 1.21875L1.74563 11.9888C1.59319 12.065 1.46396 12.1806 1.37139 12.3238C1.27883 12.4669 1.22633 12.6322 1.21934 12.8025C1.21235 12.9728 1.25114 13.1418 1.33166 13.292C1.41219 13.4422 1.53151 13.5681 1.6772 13.6566L16.2178 22.6331C16.3501 22.7146 16.4997 22.764 16.6545 22.7774C16.8093 22.7907 16.9651 22.7676 17.1094 22.71C17.2528 22.6535 17.3807 22.5636 17.4823 22.4476C17.5839 22.3316 17.6563 22.1931 17.6934 22.0434L22.7813 1.21875ZM22.7813 1.21875L7.78126 17.4253V22.3003C7.78116 22.3955 7.80932 22.4886 7.86216 22.5678C7.915 22.6469 7.99015 22.7087 8.07808 22.7451C8.16602 22.7815 8.2628 22.7911 8.35615 22.7725C8.44951 22.7539 8.53525 22.708 8.60251 22.6406L11.5134 19.7297" stroke="currentColor" stroke-width="1.5" stroke-linecap="round" stroke-linejoin="round"/>
</svg>
