<svg width="24" height="24" viewBox="0 0 24 24" fill="none" xmlns="http://www.w3.org/2000/svg">
<path d="M15.0001 6C10.0001 6 8.00006 8 8.00006 12C8.00006 16 10.0001 18 15.0001 18M6 10.5H13M6 13.5H13M1.2225 12C1.2225 14.8594 2.35838 17.6016 4.38026 19.6235C6.40214 21.6454 9.14439 22.7812 12.0038 22.7812C14.8631 22.7812 17.6054 21.6454 19.6272 19.6235C21.6491 17.6016 22.785 14.8594 22.785 12C22.785 9.14063 21.6491 6.39838 19.6272 4.3765C17.6054 2.35463 14.8631 1.21875 12.0038 1.21875C9.14439 1.21875 6.40214 2.35463 4.38026 4.3765C2.35838 6.39838 1.2225 9.14063 1.2225 12Z" stroke="currentColor" stroke-width="1.5" stroke-linecap="round" stroke-linejoin="round"/>
</svg>
