<svg width="24" height="24" viewBox="0 0 24 24" fill="none" xmlns="http://www.w3.org/2000/svg">
<path d="M14.3456 4.35391H22.0197M2.01965 4.35391H9.63726M9.63733 12.0009H22.0196M2.01965 12.0009H4.9314M12.3087 19.648C12.3087 20.272 12.5566 20.8705 12.9979 21.3117C13.4391 21.753 14.0376 22.0009 14.6616 22.0009C15.2857 22.0009 15.8842 21.753 16.3254 21.3117C16.7667 20.8705 17.0146 20.272 17.0146 19.648C17.0146 19.0239 16.7667 18.4255 16.3254 17.9842C15.8842 17.5429 15.2857 17.295 14.6616 17.295C14.0376 17.295 13.4391 17.5429 12.9979 17.9842C12.5566 18.4255 12.3087 19.0239 12.3087 19.648ZM12.3087 19.648L2.01965 19.648M17.0098 19.648H22.0195M9.64209 4.35391C9.64209 4.97794 9.88999 5.57642 10.3312 6.01768C10.7725 6.45894 11.371 6.70684 11.995 6.70684C12.6191 6.70684 13.2175 6.45894 13.6588 6.01768C14.1001 5.57642 14.3479 4.97794 14.3479 4.35391C14.3479 3.72987 14.1001 3.13139 13.6588 2.69013C13.2175 2.24887 12.6191 2.00098 11.995 2.00098C11.371 2.00098 10.7725 2.24887 10.3312 2.69013C9.88999 3.13139 9.64209 3.72987 9.64209 4.35391ZM4.93616 12.0009C4.93616 12.625 5.18405 13.2234 5.62531 13.6647C6.06657 14.106 6.66505 14.3539 7.28909 14.3539C7.91312 14.3539 8.5116 14.106 8.95286 13.6647C9.39412 13.2234 9.64202 12.625 9.64202 12.0009C9.64202 11.3769 9.39412 10.7784 8.95286 10.3372C8.5116 9.89589 7.91312 9.64799 7.28909 9.64799C6.66505 9.64799 6.06657 9.89589 5.62531 10.3372C5.18405 10.7784 4.93616 11.3769 4.93616 12.0009Z" stroke="currentColor" stroke-width="1.5" stroke-linecap="round" stroke-linejoin="round"/>
</svg>
