<svg width="24" height="24" viewBox="0 0 24 24" fill="none" xmlns="http://www.w3.org/2000/svg">
<path d="M20.8341 5.81812L17.0766 9.57562M14.4253 6.92343L18.1941 3.15468M5.81719 20.835L9.57469 17.0775M6.92344 14.4262L3.16594 18.1837M18.1894 20.8303L14.4328 17.0737M17.0803 14.4187L20.8388 18.1772M3.17062 5.81156L6.92625 9.56812M9.58219 6.91968L5.82375 3.16124M1.21875 12.0009C1.21875 14.8603 2.35463 17.6025 4.3765 19.6244C6.39838 21.6463 9.14063 22.7822 12 22.7822C14.8594 22.7822 17.6016 21.6463 19.6235 19.6244C21.6454 17.6025 22.7812 14.8603 22.7812 12.0009C22.7812 9.14157 21.6454 6.39931 19.6235 4.37744C17.6016 2.35556 14.8594 1.21968 12 1.21968C9.14063 1.21968 6.39838 2.35556 4.3765 4.37744C2.35463 6.39931 1.21875 9.14157 1.21875 12.0009ZM6.375 12.0009C6.375 13.4928 6.96763 14.9235 8.02252 15.9784C9.07742 17.0333 10.5082 17.6259 12 17.6259C13.4918 17.6259 14.9226 17.0333 15.9775 15.9784C17.0324 14.9235 17.625 13.4928 17.625 12.0009C17.625 10.5091 17.0324 9.07835 15.9775 8.02346C14.9226 6.96856 13.4918 6.37593 12 6.37593C10.5082 6.37593 9.07742 6.96856 8.02252 8.02346C6.96763 9.07835 6.375 10.5091 6.375 12.0009Z" stroke="currentColor" stroke-width="1.5" stroke-linecap="round" stroke-linejoin="round"/>
</svg>
