<svg width="24" height="24" viewBox="0 0 24 24" fill="none" xmlns="http://www.w3.org/2000/svg">
<path d="M12 12C13.6162 12 15.1661 11.358 16.3089 10.2152C17.4517 9.07238 18.0937 7.52241 18.0938 5.90625V1.21875H5.90625V5.90625C5.90625 7.52241 6.54827 9.07238 7.69107 10.2152C8.83387 11.358 10.3838 12 12 12ZM12 12C13.6162 12 15.1661 12.642 16.3089 13.7848C17.4517 14.9276 18.0937 16.4776 18.0938 18.0938V22.7812H5.90625V18.0938C5.90625 16.4776 6.54827 14.9276 7.69107 13.7848C8.83387 12.642 10.3838 12 12 12ZM4.03125 1.21969H19.9688M4.03125 22.7822H19.9688M5.90625 19.0322H9.1875L12 16.2197L14.8125 19.0322H18.0938M7.215 9.65719H16.785" stroke="currentColor" stroke-width="1.5" stroke-linecap="round" stroke-linejoin="round"/>
</svg>
