<svg width="24" height="24" viewBox="0 0 24 24" fill="none" xmlns="http://www.w3.org/2000/svg">
<path d="M10.4375 9.78589H11.8438C11.9681 9.78589 12.0873 9.83528 12.1753 9.92319C12.2631 10.0111 12.3125 10.1303 12.3125 10.2546V15.6921C12.3125 15.9408 12.4113 16.1793 12.5871 16.355C12.7629 16.5308 13.0014 16.6296 13.25 16.6296H14.6562H10.4375M11.9957 6.41589C11.8583 6.41857 11.7498 6.5334 11.7548 6.67079C11.7602 6.80721 11.8721 6.91517 12.0087 6.91565H12.0137C12.151 6.91288 12.2596 6.79814 12.2545 6.66075C12.2493 6.52586 12.1397 6.41838 12.0047 6.41589H11.9997M12 22.3134C17.6954 22.3134 22.3125 17.6963 22.3125 12.0009C22.3125 6.30548 17.6954 1.68842 12 1.68842C6.30457 1.68842 1.6875 6.30548 1.6875 12.0009C1.6875 17.6963 6.30457 22.3134 12 22.3134Z" stroke="currentColor" stroke-width="1.5" stroke-linecap="round" stroke-linejoin="round"/>
</svg>
