<svg width="24" height="24" viewBox="0 0 24 24" fill="none" xmlns="http://www.w3.org/2000/svg">
<path d="M12 6V2M12 6C13.5913 6 15.1174 6.6321 16.2426 7.75732M12 6C10.4087 6 8.88254 6.6321 7.75732 7.75732M7.75732 7.75732L4.92887 4.92887M7.75732 7.75732C6.6321 8.88254 6 10.4087 6 12M6 12H2M6 12C6 13.5913 6.6321 15.1174 7.75732 16.2426M7.75732 16.2426L4.92887 19.0711M7.75732 16.2426C8.88254 17.3678 10.4087 17.9999 12 17.9999M12 17.9999V21.9999M12 17.9999C13.5913 17.9999 15.1174 17.3678 16.2426 16.2426M16.2426 16.2426L19.0711 19.0711M16.2426 16.2426C17.3678 15.1174 17.9999 13.5913 17.9999 12M17.9999 12H21.9999M17.9999 12C17.9999 10.4087 17.3678 8.88254 16.2426 7.75732M16.2426 7.75732L19.0711 4.92887M15.3333 14.6667C14.3522 14.6664 13.3861 14.4256 12.5197 13.9654C11.6532 13.5052 10.9128 12.8396 10.3632 12.0269C9.81366 11.2141 9.47171 10.2791 9.36732 9.30354C9.26292 8.32801 9.39927 7.34177 9.76442 6.43115C8.84343 6.80086 8.02851 7.3932 7.39264 8.15515C6.75676 8.9171 6.31979 9.82485 6.12084 10.7971C5.92189 11.7694 5.96719 12.7758 6.25266 13.7263C6.53814 14.6768 7.0549 15.5416 7.75664 16.2434C8.45839 16.9451 9.32323 17.4619 10.2737 17.7474C11.2242 18.0328 12.2306 18.0781 13.2029 17.8792C14.1752 17.6802 15.0829 17.2433 15.8449 16.6074C16.6068 15.9715 17.1992 15.1566 17.5689 14.2356C16.8582 14.5214 16.0993 14.6677 15.3333 14.6667Z" stroke="currentColor" stroke-width="1.5" stroke-linecap="round" stroke-linejoin="round"/>
</svg>
