<svg width="24" height="24" viewBox="0 0 24 24" fill="none" xmlns="http://www.w3.org/2000/svg">
<path d="M4.5 12C4.5 13.9891 5.29018 15.8968 6.6967 17.3033C8.10322 18.7098 10.0109 19.5 12 19.5M4.5 12C4.5 10.0109 5.29018 8.10322 6.6967 6.6967C8.10322 5.29018 10.0109 4.5 12 4.5M4.5 12H1.6875M12 19.5C13.9891 19.5 15.8968 18.7098 17.3033 17.3033C18.7098 15.8968 19.5 13.9891 19.5 12M12 19.5V22.3125M19.5 12C19.5 10.0109 18.7098 8.10322 17.3033 6.6967C15.8968 5.29018 13.9891 4.5 12 4.5M19.5 12H22.3125M12 4.5V1.6875M8.71875 12C8.71875 12.8702 9.06445 13.7048 9.67981 14.3202C10.2952 14.9355 11.1298 15.2812 12 15.2812C12.8702 15.2812 13.7048 14.9355 14.3202 14.3202C14.9355 13.7048 15.2812 12.8702 15.2812 12C15.2812 11.1298 14.9355 10.2952 14.3202 9.67981C13.7048 9.06445 12.8702 8.71875 12 8.71875C11.1298 8.71875 10.2952 9.06445 9.67981 9.67981C9.06445 10.2952 8.71875 11.1298 8.71875 12Z" stroke="currentColor" stroke-width="1.5" stroke-linecap="round" stroke-linejoin="round"/>
</svg>
