<svg width="24" height="24" viewBox="0 0 24 24" fill="none" xmlns="http://www.w3.org/2000/svg">
<path d="M12 15.75C11.7514 15.75 11.5129 15.6512 11.3371 15.4754C11.1613 15.2996 11.0625 15.0611 11.0625 14.8125C11.0625 14.5639 11.1613 14.3254 11.3371 14.1496C11.5129 13.9738 11.7514 13.875 12 13.875C12.2486 13.875 12.4871 13.9738 12.6629 14.1496C12.8387 14.3254 12.9375 14.5639 12.9375 14.8125C12.9375 15.0611 12.8387 15.2996 12.6629 15.4754C12.4871 15.6512 12.2486 15.75 12 15.75ZM12 15.75V18.5625M4.96875 9.65625H19.0312C19.0312 9.65625 19.9688 9.65625 19.9688 10.5938V21.8438C19.9688 21.8438 19.9688 22.7812 19.0312 22.7812H4.96875C4.96875 22.7812 4.03125 22.7812 4.03125 21.8438V10.5938C4.03125 10.5938 4.03125 9.65625 4.96875 9.65625ZM6.84375 6.375C6.84375 5.00748 7.387 3.69596 8.35398 2.72898C9.32096 1.762 10.6325 1.21875 12 1.21875C13.3675 1.21875 14.679 1.762 15.646 2.72898C16.613 3.69596 17.1562 5.00748 17.1562 6.375V9.65625H6.84375V6.375Z" stroke="currentColor" stroke-width="1.5" stroke-linecap="round" stroke-linejoin="round"/>
</svg>
