<svg width="24" height="24" viewBox="0 0 24 24" fill="none" xmlns="http://www.w3.org/2000/svg">
<path d="M9.1875 8.06248C9.18775 7.55547 9.32504 7.05796 9.58486 6.62258C9.84467 6.18721 10.2173 5.83016 10.6634 5.58922C11.1095 5.34828 11.6125 5.23241 12.119 5.25386C12.6256 5.27532 13.1169 5.43331 13.541 5.71111C13.9652 5.98891 14.3063 6.3762 14.5284 6.83199C14.7504 7.28777 14.8452 7.79512 14.8025 8.30033C14.7599 8.80554 14.5815 9.28983 14.2862 9.70197C13.9909 10.1141 13.5897 10.4387 13.125 10.6415C12.7906 10.7875 12.5061 11.0278 12.3063 11.333C12.1064 11.6383 12 11.9952 12 12.36V12.75M11.9957 15.2704C11.8583 15.2731 11.7498 15.3879 11.7548 15.5253C11.7602 15.6617 11.8721 15.7697 12.0087 15.7702H12.0137C12.151 15.7674 12.2596 15.6527 12.2545 15.5153C12.2493 15.3804 12.1397 15.2729 12.0047 15.2704H11.9997M12 1.6875C6.04125 1.6875 1.21875 5.67469 1.21875 10.5938C1.24369 11.8184 1.543 13.022 2.09464 14.1157C2.64628 15.2094 3.4362 16.1654 4.40625 16.9134L2.15625 22.3125L8.13 18.8991C9.38135 19.2975 10.6867 19.5002 12 19.5C17.9541 19.5 22.7812 15.5128 22.7812 10.5938C22.7812 5.67469 17.9541 1.6875 12 1.6875Z" stroke="currentColor" stroke-width="1.5" stroke-linecap="round" stroke-linejoin="round"/>
</svg>
