<svg width="24" height="24" viewBox="0 0 24 24" fill="none" xmlns="http://www.w3.org/2000/svg">
<path d="M5.90625 12H18.0938M5.90625 7.3125H18.0938M22.7812 16.6875C22.7812 16.9361 22.6825 17.1746 22.5067 17.3504C22.3308 17.5262 22.0924 17.625 21.8438 17.625H11.5312L7.78125 21.375V17.625H2.15625C1.90761 17.625 1.66915 17.5262 1.49334 17.3504C1.31752 17.1746 1.21875 16.9361 1.21875 16.6875V3.5625C1.21875 3.31386 1.31752 3.0754 1.49334 2.89959C1.66915 2.72377 1.90761 2.625 2.15625 2.625H21.8438C22.0924 2.625 22.3308 2.72377 22.5067 2.89959C22.6825 3.0754 22.7812 3.31386 22.7812 3.5625V16.6875Z" stroke="currentColor" stroke-width="1.5" stroke-linecap="round" stroke-linejoin="round"/>
</svg>
