<svg width="24" height="24" viewBox="0 0 24 24" fill="none" xmlns="http://www.w3.org/2000/svg">
<path d="M20.7249 15.7981V18.0946C20.7249 18.9474 20.3861 19.7651 19.7832 20.368C19.1802 20.971 18.3625 21.3097 17.5097 21.3097H3.27153C2.78427 21.3097 2.31699 21.1161 1.97238 20.7716C1.62786 20.4271 1.43427 19.9597 1.43427 19.4725V7.5308C1.43427 7.04354 1.62786 6.57617 1.97238 6.23165C2.3169 5.88713 2.78427 5.69354 3.27153 5.69354H17.5097C18.3625 5.69354 19.1802 6.0323 19.7832 6.63521C20.3861 7.23821 20.7249 8.05595 20.7249 8.9087V11.2051M17.8625 5.7119L17.281 3.38603C17.2514 3.26768 17.1985 3.15635 17.1254 3.0587C17.0524 2.96096 16.9605 2.87879 16.8553 2.81696C16.7502 2.75522 16.6337 2.7149 16.5128 2.69861C16.3919 2.68223 16.269 2.69015 16.1512 2.72192L5.1087 5.69354M4.19376 8.44934H6.03093M7.86819 8.44934H9.70537M11.5425 8.44934H13.3797M15.217 8.44934H17.0541M4.19376 18.5539H6.03093M7.86819 18.5539H9.70537M11.5425 18.5539H13.3797M15.217 18.5539H17.0541M20.7285 11.2051H17.0541C16.0395 11.2051 15.217 12.0276 15.217 13.0423V13.9609C15.217 14.9756 16.0395 15.7981 17.0541 15.7981H20.7285C21.7432 15.7981 22.5657 14.9756 22.5657 13.9609V13.0423C22.5657 12.0276 21.7432 11.2051 20.7285 11.2051Z" stroke="currentColor" stroke-width="1.5" stroke-linecap="round" stroke-linejoin="round"/>
</svg>
