<svg width="24" height="24" viewBox="0 0 24 24" fill="none" xmlns="http://www.w3.org/2000/svg">
<path d="M7.51687 20.4638L3.53906 16.4869M7.51687 20.4638L21.9534 6.02625C22.4658 5.49581 22.7492 4.78536 22.7428 4.04794C22.7364 3.31051 22.4406 2.6051 21.9192 2.08364C21.3977 1.56218 20.6923 1.26639 19.9549 1.25998C19.2174 1.25357 18.507 1.53706 17.9766 2.04938L3.53906 16.4869M7.51687 20.4638L1.21875 22.7841L3.53906 16.4869M17.9541 2.07094L17.6484 1.76531C17.2968 1.41381 16.82 1.21634 16.3228 1.21634C15.8256 1.21634 15.3488 1.41381 14.9972 1.76531L11.3512 5.41125M14.0025 6.0225L17.9803 10.0003" stroke="currentColor" stroke-width="1.5" stroke-linecap="round" stroke-linejoin="round"/>
</svg>
