<svg width="24" height="24" viewBox="0 0 24 24" fill="none" xmlns="http://www.w3.org/2000/svg">
<path d="M21.5719 7.07344L16.9284 2.43094M20.2341 8.41125L15.6019 3.75656M7.51688 21.1247L2.87625 16.4841M7.28062 21.3591L1.21875 22.7812L2.64094 16.7203L17.5912 1.76812C17.7654 1.59393 17.9721 1.45575 18.1996 1.36148C18.4272 1.2672 18.6711 1.21868 18.9173 1.21868C19.1636 1.21868 19.4075 1.2672 19.635 1.36148C19.8626 1.45575 20.0693 1.59393 20.2434 1.76812L22.2328 3.75656C22.407 3.93068 22.5452 4.13741 22.6395 4.36495C22.7337 4.59248 22.7823 4.83636 22.7823 5.08266C22.7823 5.32895 22.7337 5.57283 22.6395 5.80036C22.5452 6.0279 22.407 6.23463 22.2328 6.40875L7.28062 21.3591Z" stroke="currentColor" stroke-width="1.5" stroke-linecap="round" stroke-linejoin="round"/>
</svg>
