<svg width="24" height="24" viewBox="0 0 24 24" fill="none" xmlns="http://www.w3.org/2000/svg">
<path d="M14.2566 18.9234L14.5781 22.7812H18.3281L18.7969 17.1562H21.1406V13.875C21.1406 13.0045 20.8982 12.1511 20.4405 11.4106C19.9829 10.6701 19.3281 10.0717 18.5494 9.68237C17.7708 9.29306 16.8992 9.12826 16.0322 9.20644C15.1652 9.28462 14.337 9.60269 13.6406 10.125M13.1719 4.5C13.1719 5.37024 13.5176 6.20484 14.1329 6.82019C14.7483 7.43555 15.5829 7.78125 16.4531 7.78125C17.3234 7.78125 18.158 7.43555 18.7733 6.82019C19.3887 6.20484 19.7344 5.37024 19.7344 4.5C19.7344 3.62976 19.3887 2.79516 18.7733 2.17981C18.158 1.56445 17.3234 1.21875 16.4531 1.21875C15.5829 1.21875 14.7483 1.56445 14.1329 2.17981C13.5176 2.79516 13.1719 3.62976 13.1719 4.5ZM9.89062 22.7812L10.3594 17.1562H12.7031V13.875C12.7031 12.6318 12.2093 11.4395 11.3302 10.5604C10.4511 9.68136 9.25883 9.1875 8.01562 9.1875C6.77242 9.1875 5.58014 9.68136 4.70106 10.5604C3.82199 11.4395 3.32813 12.6318 3.32812 13.875V17.1562H5.67188L6.14062 22.7812H9.89062ZM4.73438 4.5C4.73438 5.37024 5.08008 6.20484 5.69543 6.82019C6.31078 7.43555 7.14538 7.78125 8.01562 7.78125C8.88587 7.78125 9.72047 7.43555 10.3358 6.82019C10.9512 6.20484 11.2969 5.37024 11.2969 4.5C11.2969 3.62976 10.9512 2.79516 10.3358 2.17981C9.72047 1.56445 8.88587 1.21875 8.01562 1.21875C7.14538 1.21875 6.31078 1.56445 5.69543 2.17981C5.08008 2.79516 4.73438 3.62976 4.73438 4.5Z" stroke="currentColor" stroke-width="1.5" stroke-linecap="round" stroke-linejoin="round"/>
</svg>
