<svg width="24" height="24" viewBox="0 0 24 24" fill="none" xmlns="http://www.w3.org/2000/svg">
<path d="M9.42188 8.48438C9.42187 8.82294 9.48856 9.15819 9.61812 9.47098C9.74769 9.78377 9.93759 10.068 10.177 10.3074C10.4164 10.5468 10.7006 10.7367 11.0134 10.8663C11.3262 10.9958 11.6614 11.0625 12 11.0625C12.3386 11.0625 12.6738 10.9958 12.9866 10.8663C13.2994 10.7367 13.5836 10.5468 13.823 10.3074C14.0624 10.068 14.2523 9.78377 14.3819 9.47098C14.5114 9.15819 14.5781 8.82294 14.5781 8.48438C14.5781 8.14581 14.5114 7.81056 14.3819 7.49777C14.2523 7.18498 14.0624 6.90077 13.823 6.66137C13.5836 6.42196 13.2994 6.23206 12.9866 6.1025C12.6738 5.97294 12.3386 5.90625 12 5.90625C11.6614 5.90625 11.3262 5.97294 11.0134 6.1025C10.7006 6.23206 10.4164 6.42196 10.177 6.66137C9.93759 6.90077 9.74769 7.18498 9.61812 7.49777C9.48856 7.81056 9.42187 8.14581 9.42188 8.48438Z" stroke="currentColor" stroke-width="1.5" stroke-linecap="round" stroke-linejoin="round"/>
<path d="M15.2812 15.2812C15.2812 14.411 14.9355 13.5764 14.3202 12.9611C13.7048 12.3457 12.8702 12 12 12C11.1298 12 10.2952 12.3457 9.67981 12.9611C9.06445 13.5764 8.71875 14.411 8.71875 15.2812V18.0938H10.2028L10.5938 22.7812H13.4062L13.7972 18.0938H15.2812V15.2812Z" stroke="currentColor" stroke-width="1.5" stroke-linecap="round" stroke-linejoin="round"/>
<path d="M1.92188 3.32812C1.92188 3.88757 2.14411 4.42409 2.5397 4.81968C2.93528 5.21526 3.47181 5.4375 4.03125 5.4375C4.59069 5.4375 5.12722 5.21526 5.5228 4.81968C5.91839 4.42409 6.14062 3.88757 6.14062 3.32812C6.14062 2.76868 5.91839 2.23216 5.5228 1.83657C5.12722 1.44099 4.59069 1.21875 4.03125 1.21875C3.47181 1.21875 2.93528 1.44099 2.5397 1.83657C2.14411 2.23216 1.92188 2.76868 1.92188 3.32812Z" stroke="currentColor" stroke-width="1.5" stroke-linecap="round" stroke-linejoin="round"/>
<path d="M4.03125 6.375C3.28533 6.375 2.56996 6.67132 2.04251 7.19876C1.51507 7.72621 1.21875 8.44158 1.21875 9.1875V11.5312H2.625L3.09375 15.75H4.96875L5.4375 11.5312H6.84375V9.1875C6.84375 8.81816 6.771 8.45243 6.62966 8.1112C6.48832 7.76997 6.28115 7.45993 6.01999 7.19876C5.75882 6.9376 5.44878 6.73043 5.10755 6.58909C4.76632 6.44775 4.40059 6.375 4.03125 6.375Z" stroke="currentColor" stroke-width="1.5" stroke-linecap="round" stroke-linejoin="round"/>
<path d="M17.8594 3.32812C17.8594 3.88757 18.0816 4.42409 18.4772 4.81968C18.8728 5.21526 19.4093 5.4375 19.9688 5.4375C20.5282 5.4375 21.0647 5.21526 21.4603 4.81968C21.8559 4.42409 22.0781 3.88757 22.0781 3.32812C22.0781 2.76868 21.8559 2.23216 21.4603 1.83657C21.0647 1.44099 20.5282 1.21875 19.9688 1.21875C19.4093 1.21875 18.8728 1.44099 18.4772 1.83657C18.0816 2.23216 17.8594 2.76868 17.8594 3.32812Z" stroke="currentColor" stroke-width="1.5" stroke-linecap="round" stroke-linejoin="round"/>
<path d="M19.9688 6.375C19.2228 6.375 18.5075 6.67132 17.98 7.19876C17.4526 7.72621 17.1562 8.44158 17.1562 9.1875V11.5312H18.5625L19.0312 15.75H20.9062L21.375 11.5312H22.7812V9.1875C22.7812 8.44158 22.4849 7.72621 21.9575 7.19876C21.43 6.67132 20.7147 6.375 19.9688 6.375Z" stroke="currentColor" stroke-width="1.5" stroke-linecap="round" stroke-linejoin="round"/>
</svg>
