<svg width="24" height="24" viewBox="0 0 24 24" fill="none" xmlns="http://www.w3.org/2000/svg">
<path d="M13.875 22.7812L14.3438 17.1562H16.6875V13.875C16.6875 12.6318 16.1936 11.4395 15.3146 10.5604C14.4355 9.68136 13.2432 9.1875 12 9.1875C10.7568 9.1875 9.56451 9.68136 8.68544 10.5604C7.80636 11.4395 7.3125 12.6318 7.3125 13.875V17.1562H9.65625L10.125 22.7812H13.875Z" stroke="currentColor" stroke-width="1.5" stroke-linecap="round" stroke-linejoin="round"/>
<path d="M8.71875 4.5C8.71875 5.37024 9.06445 6.20484 9.67981 6.82019C10.2952 7.43555 11.1298 7.78125 12 7.78125C12.8702 7.78125 13.7048 7.43555 14.3202 6.82019C14.9355 6.20484 15.2812 5.37024 15.2812 4.5C15.2812 3.62976 14.9355 2.79516 14.3202 2.17981C13.7048 1.56445 12.8702 1.21875 12 1.21875C11.1298 1.21875 10.2952 1.56445 9.67981 2.17981C9.06445 2.79516 8.71875 3.62976 8.71875 4.5Z" stroke="currentColor" stroke-width="1.5" stroke-linecap="round" stroke-linejoin="round"/>
</svg>
