<svg width="24" height="24" viewBox="0 0 24 24" fill="none" xmlns="http://www.w3.org/2000/svg">
<path d="M9.2681 7.6875C9.67428 7.2806 9.90241 6.72915 9.90241 6.15422C9.90241 5.57928 9.67428 5.02784 9.2681 4.62094L6.96748 2.32312C6.56082 1.91649 6.00929 1.68804 5.4342 1.68804C4.85911 1.68804 4.30758 1.91649 3.90092 2.32312L2.63998 3.585C2.10944 4.11469 1.77858 4.81168 1.70356 5.55761C1.62854 6.30354 1.81399 7.05245 2.22842 7.67719C5.94176 13.2665 10.7335 18.0582 16.3228 21.7716C16.9478 22.1854 17.6965 22.3707 18.4424 22.2961C19.1882 22.2214 19.8854 21.8914 20.4159 21.3619L21.6769 20.1C21.8783 19.8987 22.0381 19.6597 22.1472 19.3966C22.2562 19.1335 22.3123 18.8515 22.3123 18.5667C22.3123 18.2819 22.2562 17.9999 22.1472 17.7368C22.0381 17.4738 21.8783 17.2347 21.6769 17.0334L19.3772 14.7338C19.1759 14.5323 18.9369 14.3725 18.6738 14.2634C18.4107 14.1544 18.1287 14.0983 17.8439 14.0983C17.5591 14.0983 17.2771 14.1544 17.014 14.2634C16.7509 14.3725 16.5119 14.5323 16.3106 14.7338L15.5437 15.5006C12.9739 13.3858 10.6154 11.0266 8.50123 8.45625L9.2681 7.6875Z" stroke="currentColor" stroke-width="1.5" stroke-linecap="round" stroke-linejoin="round"/>
</svg>
