<svg width="24" height="24" viewBox="0 0 24 24" fill="none" xmlns="http://www.w3.org/2000/svg">
<path d="M12 1.41563C13.8648 1.41563 15.6532 2.15642 16.9718 3.47503C18.2905 4.79365 19.0312 6.58207 19.0312 8.44688C19.0312 11.7722 13.875 20.0541 12.3947 22.3688C12.3523 22.4349 12.2939 22.4894 12.2249 22.5271C12.156 22.5649 12.0786 22.5846 12 22.5846C11.9214 22.5846 11.844 22.5649 11.7751 22.5271C11.7061 22.4894 11.6477 22.4349 11.6053 22.3688C10.125 20.055 4.96875 11.7722 4.96875 8.44688C4.96875 6.58207 5.70954 4.79365 7.02816 3.47503C8.34677 2.15642 10.1352 1.41563 12 1.41563Z" stroke="currentColor" stroke-width="1.5" stroke-linecap="round" stroke-linejoin="round"/>
<path d="M9.1875 8.44688C9.1875 9.1928 9.48382 9.90817 10.0113 10.4356C10.5387 10.9631 11.2541 11.2594 12 11.2594C12.7459 11.2594 13.4613 10.9631 13.9887 10.4356C14.5162 9.90817 14.8125 9.1928 14.8125 8.44688C14.8125 7.70096 14.5162 6.98558 13.9887 6.45814C13.4613 5.93069 12.7459 5.63438 12 5.63438C11.2541 5.63438 10.5387 5.93069 10.0113 6.45814C9.48382 6.98558 9.1875 7.70096 9.1875 8.44688Z" stroke="currentColor" stroke-width="1.5" stroke-linecap="round" stroke-linejoin="round"/>
</svg>
