<svg width="24" height="24" viewBox="0 0 24 24" fill="none" xmlns="http://www.w3.org/2000/svg">
<path d="M10.5375 13.4625L1.21875 22.7812M6.89062 9.81563L14.1844 17.1094C14.6921 16.557 15.0384 15.8759 15.1856 15.1402C15.3327 14.4046 15.275 13.6426 15.0188 12.9375L20.6437 7.3125C21.3281 7.99688 22.0125 7.94063 22.4625 7.48125C22.5716 7.37239 22.6582 7.24308 22.7173 7.10071C22.7764 6.95833 22.8068 6.80571 22.8068 6.65156C22.8068 6.49742 22.7764 6.34479 22.7173 6.20242C22.6582 6.06005 22.5716 5.93073 22.4625 5.82188L18.1313 1.56563C18.0224 1.45649 17.8931 1.36991 17.7507 1.31083C17.6083 1.25175 17.4557 1.22134 17.3016 1.22134C17.1474 1.22134 16.9948 1.25175 16.8524 1.31083C16.71 1.36991 16.5807 1.45649 16.4719 1.56563C16.3515 1.69241 16.2605 1.84415 16.2054 2.01006C16.1503 2.17597 16.1324 2.35198 16.153 2.52559C16.1736 2.6992 16.2321 2.86615 16.3245 3.01457C16.4169 3.163 16.5408 3.28925 16.6875 3.38438L11.0625 9.00938C10.3596 8.75157 9.5996 8.69041 8.86447 8.83248C8.12934 8.97455 7.4469 9.31447 6.89062 9.81563Z" stroke="currentColor" stroke-width="1.5" stroke-linecap="round" stroke-linejoin="round"/>
</svg>
