<svg width="24" height="24" viewBox="0 0 24 24" fill="none" xmlns="http://www.w3.org/2000/svg">
<path d="M3.7981 2.73561C3.79818 2.57587 3.83908 2.4188 3.91692 2.27931C3.99475 2.13981 4.10694 2.02252 4.24284 1.93856C4.37874 1.8546 4.53383 1.80675 4.69341 1.79956C4.85299 1.79238 5.01176 1.82608 5.15466 1.89749L21.6834 11.1619C21.8389 11.2398 21.9697 11.3595 22.0611 11.5075C22.1524 11.6555 22.2008 11.826 22.2008 12C22.2008 12.1739 22.1524 12.3445 22.0611 12.4925C21.9697 12.6405 21.8389 12.7602 21.6834 12.8381L5.15466 22.1025C5.01176 22.1739 4.85299 22.2076 4.69341 22.2004C4.53383 22.1932 4.37874 22.1454 4.24284 22.0614C4.10694 21.9775 3.99475 21.8602 3.91692 21.7207C3.83908 21.5812 3.79818 21.4241 3.7981 21.2644V2.73561Z" stroke="currentColor" stroke-width="1.5" stroke-linecap="round" stroke-linejoin="round"/>
</svg>
