<svg width="24" height="24" viewBox="0 0 24 24" fill="none" xmlns="http://www.w3.org/2000/svg">
<path d="M7.78125 19.0303H16.2188M7.78125 16.2178H16.2188M5.90625 16.2188H3.09375C2.59693 16.2173 2.12087 16.0192 1.76956 15.6679C1.41825 15.3166 1.22023 14.8406 1.21875 14.3438V8.71875C1.22023 8.22193 1.41825 7.74587 1.76956 7.39456C2.12087 7.04325 2.59693 6.84523 3.09375 6.84375H20.9062C21.4031 6.84523 21.8791 7.04325 22.2304 7.39456C22.5817 7.74587 22.7798 8.22193 22.7812 8.71875V14.3438C22.7798 14.8406 22.5817 15.3166 22.2304 15.6679C21.8791 16.0192 21.4031 16.2173 20.9062 16.2188H18.0938M5.90625 4.96875V1.21875H14.8931C15.1417 1.2188 15.3802 1.31761 15.5559 1.49344L17.8191 3.75656C17.9949 3.93234 18.0937 4.17075 18.0938 4.41937V4.96875L14.3438 4.96783V1.21783M18.0938 21.8438C18.0938 22.0924 17.995 22.3308 17.8192 22.5067C17.6433 22.6825 17.4049 22.7812 17.1562 22.7812H6.84375C6.59511 22.7812 6.35665 22.6825 6.18084 22.5067C6.00502 22.3308 5.90625 22.0924 5.90625 21.8438V13.4062H18.0938V21.8438ZM3.67346 10.0282C3.67346 10.2271 3.75248 10.4179 3.89313 10.5585C4.03378 10.6992 4.22455 10.7782 4.42346 10.7782C4.62237 10.7782 4.81314 10.6992 4.95379 10.5585C5.09444 10.4179 5.17346 10.2271 5.17346 10.0282C5.17346 9.82929 5.09444 9.63852 4.95379 9.49787C4.81314 9.35722 4.62237 9.2782 4.42346 9.2782C4.22455 9.2782 4.03378 9.35722 3.89313 9.49787C3.75248 9.63852 3.67346 9.82929 3.67346 10.0282Z" stroke="currentColor" stroke-width="1.5" stroke-linecap="round" stroke-linejoin="round"/>
</svg>
