<svg width="24" height="24" viewBox="0 0 24 24" fill="none" xmlns="http://www.w3.org/2000/svg">
<path d="M8.48438 9.88313C8.4834 9.21977 8.67002 8.56966 9.0227 8.00783C9.37538 7.446 9.87974 6.99534 10.4776 6.70788C11.0754 6.42042 11.7423 6.30787 12.4014 6.38321C13.0605 6.45856 13.6848 6.71873 14.2023 7.13371C14.7198 7.54868 15.1095 8.10154 15.3263 8.72848C15.543 9.35541 15.5781 10.0309 15.4274 10.6769C15.2768 11.3229 14.9465 11.9131 14.4747 12.3795C14.003 12.8458 13.409 13.1693 12.7612 13.3125C12.5488 13.3544 12.3572 13.4681 12.2186 13.6346C12.08 13.801 12.0028 14.01 12 14.2266V15.27M12.0085 17.5959C11.8711 17.5986 11.7626 17.7135 11.7676 17.8509C11.773 17.9874 11.8849 18.0954 12.0215 18.0959H12.0264C12.1638 18.0931 12.2723 17.9783 12.2673 17.8409C12.262 17.7059 12.1525 17.5984 12.0175 17.5959H12.0125M12 22.7822C17.9541 22.7822 22.7812 17.955 22.7812 12.0009C22.7812 6.04688 17.9541 1.21969 12 1.21969C6.04594 1.21969 1.21875 6.04688 1.21875 12.0009C1.21875 17.955 6.04594 22.7822 12 22.7822Z" stroke="currentColor" stroke-width="1.5" stroke-linecap="round" stroke-linejoin="round"/>
</svg>
