<svg width="24" height="24" viewBox="0 0 24 24" fill="none" xmlns="http://www.w3.org/2000/svg">
<path d="M17.2601 13.33C15.0101 13.01 13.2501 11.04 13.2501 8.71C13.2501 6.05 15.5101 3.9 18.2101 4.09C20.7401 4.26 22.5701 6.58 22.5101 9.12C22.2801 18.67 14.0801 19.92 14.0001 19.93C13.6801 19.98 13.3801 19.79 13.2801 19.49C13.1801 19.19 13.3001 18.86 13.5801 18.7C16.8001 16.86 17.2301 14.41 17.2501 13.34L17.2601 13.33Z" stroke="currentColor" stroke-width="1.5" stroke-linecap="round" stroke-linejoin="round"/>
<path d="M5.49005 13.33C3.24005 13.01 1.48005 11.04 1.48005 8.71C1.48005 6.05 3.74005 3.9 6.44005 4.09C8.97005 4.26 10.8 6.58 10.74 9.12C10.51 18.67 2.31005 19.92 2.23005 19.93C1.91005 19.98 1.61005 19.79 1.51005 19.49C1.41005 19.19 1.53005 18.86 1.81005 18.7C5.03005 16.86 5.46005 14.41 5.48005 13.34L5.49005 13.33Z" stroke="currentColor" stroke-width="1.5" stroke-linecap="round" stroke-linejoin="round"/>
</svg>
