<svg width="24" height="24" viewBox="0 0 24 24" fill="none" xmlns="http://www.w3.org/2000/svg">
<path d="M6.75998 10.67C9.00998 10.99 10.77 12.96 10.77 15.29C10.77 17.95 8.50998 20.1 5.80998 19.91C3.27998 19.74 1.44998 17.42 1.50998 14.88C1.73998 5.32998 9.93998 4.07998 10.02 4.06998C10.34 4.01998 10.64 4.20998 10.74 4.50998C10.84 4.80998 10.72 5.13998 10.44 5.29998C7.21998 7.13998 6.78998 9.58998 6.76998 10.66L6.75998 10.67Z" stroke="currentColor" stroke-width="1.5" stroke-linecap="round" stroke-linejoin="round"/>
<path d="M18.52 10.67C20.77 10.99 22.53 12.96 22.53 15.29C22.53 17.95 20.27 20.1 17.57 19.91C15.04 19.74 13.21 17.42 13.27 14.88C13.5 5.32998 21.7 4.07998 21.78 4.06998C22.1 4.01998 22.4 4.20998 22.5 4.50998C22.6 4.80998 22.48 5.13998 22.2 5.29998C18.98 7.13998 18.55 9.58998 18.53 10.66L18.52 10.67Z" stroke="currentColor" stroke-width="1.5" stroke-linecap="round" stroke-linejoin="round"/>
</svg>
