<svg width="24" height="24" viewBox="0 0 24 24" fill="none" xmlns="http://www.w3.org/2000/svg">
<path d="M21.79 1.86313L20.8355 7.84028L14.8583 6.88576M20.8349 7.84201C19.6322 5.47608 17.5447 3.68005 15.0258 2.84383C12.5069 2.0076 9.7598 2.19869 7.38092 3.37561C5.97223 4.07717 4.75001 5.10283 3.81462 6.36839C2.87923 7.63396 2.25733 9.10333 2 10.6559M2.21021 22.1765L3.16473 16.1993L9.14189 17.1539M3.16536 16.1976C4.3681 18.5635 6.45552 20.3596 8.97444 21.1958C11.4934 22.032 14.2405 21.8409 16.6193 20.664C18.028 19.9624 19.2502 18.9368 20.1856 17.6712C21.121 16.4057 21.7429 14.9363 22.0003 13.3837" stroke="currentColor" stroke-width="1.5" stroke-linecap="round" stroke-linejoin="round"/>
</svg>
