<svg width="24" height="24" viewBox="0 0 24 24" fill="none" xmlns="http://www.w3.org/2000/svg">
<path d="M19.4269 7.51219C19.3212 7.73425 19.2634 7.97603 19.2571 8.22186C19.2507 8.4677 19.2961 8.71212 19.3902 8.93932C19.4843 9.16651 19.6251 9.37142 19.8034 9.54078C19.9817 9.71015 20.1936 9.84019 20.4253 9.9225L21.6112 10.3444C21.9535 10.4658 22.2497 10.6903 22.4591 10.9869C22.6686 11.2836 22.7811 11.6378 22.7811 12.0009C22.7811 12.3641 22.6686 12.7183 22.4591 13.0149C22.2497 13.3116 21.9535 13.536 21.6112 13.6575L20.4253 14.0794C20.1936 14.1617 19.9817 14.2917 19.8034 14.4611C19.6251 14.6305 19.4843 14.8354 19.3902 15.0626C19.2961 15.2898 19.2507 15.5342 19.2571 15.78C19.2634 16.0258 19.3212 16.2676 19.4269 16.4897L19.9687 17.625C20.1254 17.953 20.1765 18.3215 20.115 18.6798C20.0536 19.0381 19.8825 19.3685 19.6255 19.6255C19.3685 19.8826 19.0381 20.0536 18.6798 20.1151C18.3215 20.1765 17.953 20.1254 17.625 19.9688L16.4878 19.4287C16.2657 19.3231 16.024 19.2652 15.7781 19.2589C15.5323 19.2526 15.2879 19.298 15.0607 19.3921C14.8335 19.4862 14.6286 19.627 14.4592 19.8053C14.2899 19.9836 14.1598 20.1955 14.0775 20.4272L13.6556 21.6131C13.534 21.955 13.3095 22.2509 13.0129 22.4601C12.7164 22.6693 12.3624 22.7817 11.9995 22.7817C11.6366 22.7817 11.2826 22.6693 10.9861 22.4601C10.6896 22.2509 10.4651 21.955 10.3434 21.6131L9.92156 20.4272C9.83914 20.1954 9.709 19.9835 9.53955 19.8052C9.3701 19.6269 9.16511 19.4862 8.93784 19.3921C8.71057 19.298 8.46608 19.2526 8.22018 19.2589C7.97428 19.2652 7.73244 19.3231 7.51031 19.4287L6.375 19.9688C6.04698 20.126 5.67824 20.1776 5.31967 20.1163C4.96109 20.0551 4.63037 19.8841 4.37315 19.6268C4.11593 19.3696 3.94489 19.0389 3.88365 18.6803C3.82241 18.3218 3.87398 17.953 4.03125 17.625L4.57125 16.4878C4.67689 16.2657 4.73475 16.024 4.74106 15.7781C4.74737 15.5323 4.702 15.2879 4.60789 15.0607C4.51378 14.8335 4.37302 14.6286 4.19472 14.4592C4.01641 14.2899 3.80454 14.1598 3.57281 14.0775L2.38687 13.6556C2.04465 13.5342 1.74845 13.3097 1.53897 13.0131C1.32949 12.7164 1.21703 12.3622 1.21703 11.9991C1.21703 11.6359 1.32949 11.2817 1.53897 10.9851C1.74845 10.6884 2.04465 10.464 2.38687 10.3425L3.57281 9.92063C3.8043 9.83828 4.01594 9.7083 4.19407 9.53907C4.3722 9.36984 4.51285 9.16513 4.60694 8.93816C4.70104 8.71119 4.74647 8.46701 4.74033 8.22139C4.73418 7.97577 4.67658 7.73416 4.57125 7.51219L4.03125 6.375C3.87398 6.04699 3.82241 5.67824 3.88365 5.31967C3.94489 4.9611 4.11593 4.63038 4.37315 4.37315C4.63037 4.11593 4.96109 3.9449 5.31967 3.88366C5.67824 3.82241 6.04698 3.87398 6.375 4.03125L7.51218 4.57125C7.73411 4.67663 7.97566 4.73432 8.22125 4.7406C8.46685 4.74688 8.71103 4.70161 8.93805 4.60771C9.16507 4.51381 9.36989 4.37337 9.53929 4.19544C9.70869 4.01751 9.83891 3.80604 9.92156 3.57469L10.3434 2.38875C10.4651 2.04685 10.6896 1.75098 10.9861 1.54176C11.2826 1.33254 11.6366 1.22022 11.9995 1.22022C12.3624 1.22022 12.7164 1.33254 13.0129 1.54176C13.3095 1.75098 13.534 2.04685 13.6556 2.38875L14.0775 3.57469C14.1598 3.80642 14.2899 4.01829 14.4592 4.19659C14.6286 4.3749 14.8335 4.51566 15.0607 4.60977C15.2879 4.70388 15.5323 4.74925 15.7781 4.74294C16.024 4.73663 16.2657 4.67877 16.4878 4.57313L17.625 4.03125C17.953 3.87459 18.3215 3.82348 18.6798 3.88495C19.0381 3.94642 19.3685 4.11745 19.6255 4.37449C19.8825 4.63152 20.0536 4.96193 20.115 5.3202C20.1765 5.67847 20.1254 6.04698 19.9687 6.375L19.4269 7.51219Z" stroke="currentColor" stroke-width="1.5" stroke-linecap="round" stroke-linejoin="round"/>
<path d="M7.78031 12.0009C7.78031 13.1198 8.22478 14.1929 9.01595 14.984C9.80712 15.7752 10.8802 16.2197 11.9991 16.2197C13.1179 16.2197 14.191 15.7752 14.9822 14.984C15.7733 14.1929 16.2178 13.1198 16.2178 12.0009C16.2178 10.8821 15.7733 9.809 14.9822 9.01783C14.191 8.22666 13.1179 7.78219 11.9991 7.78219C10.8802 7.78219 9.80712 8.22666 9.01595 9.01783C8.22478 9.809 7.78031 10.8821 7.78031 12.0009Z" stroke="currentColor" stroke-width="1.5" stroke-linecap="round" stroke-linejoin="round"/>
</svg>
