<svg width="24" height="24" viewBox="0 0 24 24" fill="none" xmlns="http://www.w3.org/2000/svg">
<path d="M8.31939 10.3237C7.94192 9.56783 7.32022 8.96153 6.55507 8.60314C5.78993 8.24474 4.92616 8.15524 4.10379 8.34916C3.28141 8.54307 2.54862 9.00902 2.02419 9.67149C1.49976 10.334 1.21442 11.1541 1.21442 11.9991C1.21442 12.844 1.49976 13.6642 2.02419 14.3266C2.54862 14.9891 3.28141 15.4551 4.10379 15.649C4.92616 15.8429 5.78993 15.7534 6.55507 15.395C7.32022 15.0366 7.94192 14.4303 8.31939 13.6744M8.31939 10.3237L15.6797 6.64406M8.31939 10.3237C8.58197 10.8433 8.71878 11.4174 8.71878 11.9995C8.71878 12.5817 8.58197 13.1548 8.31939 13.6744M8.31939 13.6744L15.6797 17.355M15.6797 6.64406C15.3129 5.91236 15.1949 5.08095 15.3437 4.27611C15.4925 3.47126 15.8998 2.73695 16.5039 2.1847C17.108 1.63245 17.8759 1.29244 18.6908 1.21631C19.5057 1.14018 20.3232 1.33208 21.0192 1.76288C21.7151 2.19368 22.2514 2.83983 22.5467 3.6032C22.842 4.36657 22.88 5.20544 22.6551 5.99241C22.4302 6.77939 21.9546 7.47146 21.3006 7.96353C20.6465 8.45559 19.8497 8.72075 19.0313 8.71875C18.3351 8.71812 17.6528 8.5237 17.0609 8.15728C16.469 7.79086 15.9907 7.2669 15.6797 6.64406ZM15.6797 17.355C15.315 18.0849 15.1983 18.9139 15.3473 19.7161C15.4963 20.5184 15.9029 21.2501 16.5055 21.8004C17.108 22.3506 17.8736 22.6893 18.686 22.765C19.4985 22.8408 20.3134 22.6495 21.0073 22.2202C21.7012 21.7908 22.2361 21.1469 22.5309 20.386C22.8257 19.6252 22.8643 18.7889 22.6408 18.0042C22.4173 17.2194 21.944 16.5289 21.2926 16.0375C20.6411 15.5461 19.8472 15.2806 19.0313 15.2812C18.3351 15.2819 17.6528 15.4763 17.0609 15.8427C16.469 16.2091 15.9907 16.7322 15.6797 17.355Z" stroke="currentColor" stroke-width="1.5" stroke-linecap="round" stroke-linejoin="round"/>
</svg>
