<svg width="24" height="24" viewBox="0 0 24 24" fill="none" xmlns="http://www.w3.org/2000/svg">
<path d="M12 13.4053V1.21781M12 1.21781L7.78125 5.43656M12 1.21781L16.2188 5.43656M14.8125 8.71875H18.5625C18.8111 8.71875 19.0496 8.81752 19.2254 8.99334C19.4012 9.16915 19.5 9.40761 19.5 9.65625V21.8438C19.5 22.0924 19.4012 22.3308 19.2254 22.5067C19.0496 22.6825 18.8111 22.7812 18.5625 22.7812H5.4375C5.18886 22.7812 4.9504 22.6825 4.77459 22.5067C4.59877 22.3308 4.5 22.0924 4.5 21.8438V9.65625C4.5 9.40761 4.59877 9.16915 4.77459 8.99334C4.9504 8.81752 5.18886 8.71875 5.4375 8.71875H9.1875" stroke="currentColor" stroke-width="1.5" stroke-linecap="round" stroke-linejoin="round"/>
</svg>
