<svg width="24" height="24" viewBox="0 0 24 24" fill="none" xmlns="http://www.w3.org/2000/svg">
<path d="M5.42169 6.91309H20.2065C20.3285 6.91306 20.4489 6.94079 20.5582 6.99412C20.6676 7.04744 20.763 7.12493 20.837 7.22055C20.9111 7.31618 20.9618 7.42737 20.9852 7.54547C21.0086 7.66357 21.0041 7.78542 20.972 7.90152L19.3435 13.7914C19.2062 14.2883 18.9071 14.7269 18.4922 15.0396C18.0774 15.3523 17.5698 15.5217 17.0478 15.5218H7.25889M3 3H3.29985C3.66386 3.00002 4.01679 3.12353 4.29944 3.3498C4.5821 3.57608 4.77729 3.89137 4.85227 4.24278L7.49463 16.6268C7.56962 16.9782 7.76481 17.2935 8.04746 17.5198C8.33012 17.746 8.68304 17.8695 9.04705 17.8696H18.072M7.36304 19.826C7.36304 20.1374 7.4884 20.4359 7.71155 20.6561C7.9347 20.8762 8.23735 20.9999 8.55293 20.9999C8.86851 20.9999 9.17117 20.8762 9.39432 20.6561C9.61746 20.4359 9.74283 20.1374 9.74283 19.826C9.74283 19.5147 9.61746 19.2161 9.39432 18.9959C9.17117 18.7758 8.86851 18.6521 8.55293 18.6521C8.23735 18.6521 7.9347 18.7758 7.71155 18.9959C7.4884 19.2161 7.36304 19.5147 7.36304 19.826ZM15.2955 19.826C15.2955 20.1374 15.4209 20.4359 15.644 20.6561C15.8672 20.8762 16.1698 20.9999 16.4854 20.9999C16.801 20.9999 17.1037 20.8762 17.3268 20.6561C17.55 20.4359 17.6753 20.1374 17.6753 19.826C17.6753 19.5147 17.55 19.2161 17.3268 18.9959C17.1037 18.7758 16.801 18.6521 16.4854 18.6521C16.1698 18.6521 15.8672 18.7758 15.644 18.9959C15.4209 19.2161 15.2955 19.5147 15.2955 19.826Z" stroke="currentColor" stroke-width="1.5" stroke-linecap="round" stroke-linejoin="round"/>
</svg>
