<svg width="24" height="24" viewBox="0 0 24 24" fill="none" xmlns="http://www.w3.org/2000/svg">
<path d="M14.7977 5.44537C14.6724 4.75897 14.3236 4.13965 13.811 3.6935C13.2983 3.24737 12.6537 3.0022 11.9877 3C11.325 3.00305 10.6836 3.24679 10.1728 3.68981C9.66194 4.13282 9.31301 4.74778 9.18533 5.43018M17.3798 7.79924H6.62092C6.36256 7.78818 6.10917 7.87592 5.90782 8.04615C5.70647 8.21637 5.57086 8.45751 5.5262 8.72475L4.00152 19.8557C3.99362 20.0085 4.0166 20.1614 4.06895 20.3041C4.12131 20.447 4.20185 20.5766 4.3053 20.6845C4.40875 20.7923 4.53275 20.876 4.6692 20.9301C4.80564 20.9841 4.95143 21.0073 5.097 20.998H18.9037C19.0492 21.0073 19.195 20.9842 19.3315 20.9301C19.4679 20.876 19.5918 20.7923 19.6952 20.6844C19.7986 20.5766 19.8791 20.4469 19.9314 20.3041C19.9836 20.1613 20.0064 20.0085 19.9984 19.8557L18.4738 8.72475C18.4292 8.45766 18.2936 8.21663 18.0924 8.04642C17.8913 7.87621 17.6381 7.78838 17.3798 7.79924Z" stroke="currentColor" stroke-width="1.5" stroke-linecap="round" stroke-linejoin="round"/>
</svg>
