<svg width="24" height="24" viewBox="0 0 24 24" fill="none" xmlns="http://www.w3.org/2000/svg">
<path d="M11.5622 2.22281C11.5958 2.13357 11.6557 2.05668 11.7341 2.00241C11.8125 1.94814 11.9056 1.91906 12.001 1.91906C12.0963 1.91906 12.1894 1.94814 12.2678 2.00241C12.3462 2.05668 12.4061 2.13357 12.4397 2.22281L14.8125 8.95031H21.5138C21.6096 8.9503 21.7031 8.97966 21.7817 9.03444C21.8604 9.08921 21.9203 9.16677 21.9535 9.25666C21.9867 9.34655 21.9916 9.44446 21.9674 9.53719C21.9433 9.62993 21.8913 9.71303 21.8185 9.77531L16.2188 14.4178L18.5625 21.4584C18.5939 21.5528 18.5944 21.6546 18.5641 21.7493C18.5337 21.844 18.4741 21.9266 18.3937 21.9851C18.3134 22.0437 18.2165 22.0751 18.1171 22.075C18.0176 22.0749 17.9208 22.0431 17.8406 21.9844L12 17.6991L6.15658 21.9844C6.07633 22.042 5.97993 22.0728 5.88114 22.0723C5.78235 22.0719 5.68623 22.0402 5.6065 21.9819C5.52676 21.9236 5.46749 21.8416 5.43714 21.7476C5.4068 21.6536 5.40693 21.5524 5.43751 21.4584L7.78126 14.4178L2.18064 9.77531C2.10781 9.71303 2.05582 9.62993 2.03167 9.53719C2.00752 9.44446 2.01237 9.34655 2.04557 9.25666C2.07877 9.16677 2.13872 9.08921 2.21735 9.03444C2.29597 8.97966 2.3895 8.9503 2.48533 8.95031H9.18751L11.5622 2.22281Z" stroke="currentColor" stroke-width="1.5" stroke-linecap="round" stroke-linejoin="round"/>
</svg>
