<svg width="24" height="24" viewBox="0 0 24 24" fill="none" xmlns="http://www.w3.org/2000/svg">
<path d="M22.1672 4.64438L19.0312 7.78125H16.2188V4.96875L19.3547 1.83188C18.2052 1.27135 16.9085 1.08668 15.6482 1.30402C14.3879 1.52137 13.2279 2.12972 12.3326 3.0429C11.4373 3.95608 10.8519 5.12781 10.6595 6.39213C10.467 7.65646 10.6772 8.94928 11.2603 10.0875L1.76813 19.5806C1.42658 19.9343 1.23759 20.4079 1.24186 20.8995C1.24613 21.3911 1.44333 21.8614 1.79097 22.209C2.13861 22.5567 2.60888 22.7539 3.1005 22.7581C3.59212 22.7624 4.06575 22.5734 4.41938 22.2319L13.9125 12.7388C15.0507 13.3215 16.3434 13.5314 17.6075 13.3388C18.8716 13.1462 20.0431 12.5609 20.9561 11.6656C21.8691 10.7703 22.4773 9.61052 22.6947 8.35042C22.9121 7.09032 22.7275 5.79378 22.1672 4.64438Z" stroke="currentColor" stroke-width="1.5" stroke-linecap="round" stroke-linejoin="round"/>
</svg>
