<svg width="24" height="24" viewBox="0 0 24 24" fill="none" xmlns="http://www.w3.org/2000/svg">
<path d="M4.46156 19.7072C6.06242 18.7789 7.76531 18.039 9.53625 17.5022C10.3209 17.2125 10.4062 15.4125 9.84375 14.7937C9.03188 13.9003 8.34375 12.8531 8.34375 10.3256C8.29646 9.82208 8.35659 9.31424 8.52015 8.83566C8.68372 8.35709 8.94701 7.91868 9.29261 7.54942C9.63821 7.18016 10.0582 6.88846 10.525 6.6936C10.9917 6.49875 11.4944 6.40517 12 6.41906C12.5056 6.40517 13.0083 6.49875 13.475 6.6936C13.9418 6.88846 14.3618 7.18016 14.7074 7.54942C15.053 7.91868 15.3163 8.35709 15.4798 8.83566C15.6434 9.31424 15.7035 9.82208 15.6562 10.3256C15.6562 12.8569 14.9681 13.9003 14.1562 14.7937C13.5938 15.4125 13.6791 17.2125 14.4637 17.5022C16.2347 18.039 17.9376 18.7789 19.5384 19.7072M1.21875 12C1.21875 14.8594 2.35463 17.6016 4.3765 19.6235C6.39838 21.6454 9.14063 22.7812 12 22.7812C14.8594 22.7812 17.6016 21.6454 19.6235 19.6235C21.6454 17.6016 22.7812 14.8594 22.7812 12C22.7812 9.14063 21.6454 6.39838 19.6235 4.3765C17.6016 2.35463 14.8594 1.21875 12 1.21875C9.14063 1.21875 6.39838 2.35463 4.3765 4.3765C2.35463 6.39838 1.21875 9.14063 1.21875 12Z" stroke="currentColor" stroke-width="1.5" stroke-linecap="round" stroke-linejoin="round"/>
</svg>
