<svg width="24" height="24" viewBox="0 0 24 24" fill="none" xmlns="http://www.w3.org/2000/svg">
<path d="M8.71871 12C8.71871 12.8702 9.06441 13.7048 9.67976 14.3202C10.2951 14.9355 11.1297 15.2812 12 15.2812C12.8702 15.2812 13.7048 14.9355 14.3201 14.3202C14.9355 13.7048 15.2812 12.8702 15.2812 12C15.2812 11.1298 14.9355 10.2952 14.3201 9.67981C13.7048 9.06445 12.8702 8.71875 12 8.71875C11.1297 8.71875 10.2951 9.06445 9.67976 9.67981C9.06441 10.2952 8.71871 11.1298 8.71871 12Z" stroke="currentColor" stroke-width="1.5" stroke-linecap="round" stroke-linejoin="round"/>
<path d="M22.6687 11.6906C21.5718 10.4531 17.2125 5.90625 12 5.90625C6.78746 5.90625 2.42808 10.4531 1.33121 11.6906C1.2596 11.7778 1.22046 11.8872 1.22046 12C1.22046 12.1128 1.2596 12.2222 1.33121 12.3094C2.42808 13.5469 6.78746 18.0938 12 18.0938C17.2125 18.0938 21.5718 13.5469 22.6687 12.3094C22.7403 12.2222 22.7795 12.1128 22.7795 12C22.7795 11.8872 22.7403 11.7778 22.6687 11.6906Z" stroke="currentColor" stroke-width="1.5" stroke-linecap="round" stroke-linejoin="round"/>
</svg>
