<svg xmlns="http://www.w3.org/2000/svg" width="64" height="64" viewBox="0 0 2500 2500" version="1.1">
	<path d="M 1233 0.626 C 1216.260 2.750, 1197.277 8.317, 1184.077 14.972 C 1142.882 35.741, 1114.919 72.015, 1104.682 117.964 L 1102.558 127.500 1102.029 1039 C 1101.515 1925.107, 1101.448 1950.619, 1099.638 1954.758 C 1097.406 1959.863, 1089.328 1967.407, 1084.324 1969.058 C 1079.661 1970.597, 1068.441 1969.797, 1064.243 1967.626 C 1062.461 1966.704, 1058.576 1963.374, 1055.610 1960.225 C 1052.644 1957.076, 877.540 1758.075, 666.489 1518 C 455.438 1277.925, 279.552 1078.203, 275.630 1074.173 C 254.730 1052.695, 227.954 1038.539, 196.500 1032.338 C 184.107 1029.895, 157.021 1029.915, 144.536 1032.377 C 81.513 1044.804, 34.663 1093.529, 25.405 1156.277 C 23.283 1170.660, 23.969 1193.146, 26.957 1207.199 C 31.061 1226.493, 39.679 1246.229, 50.781 1261.759 C 57.857 1271.656, 1066.225 2421.260, 1078 2432.853 C 1096.001 2450.576, 1118.034 2466.097, 1141.383 2477.501 C 1159.328 2486.265, 1171.606 2490.896, 1189.951 2495.819 L 1203.500 2499.456 1250 2499.456 L 1296.500 2499.456 1310.049 2495.819 C 1328.408 2490.892, 1340.703 2486.254, 1358.500 2477.539 C 1382.155 2465.956, 1402.457 2451.706, 1421.031 2433.650 C 1428.184 2426.696, 2417.918 1299.745, 2442.124 1270.992 C 2457.152 1253.141, 2467.997 1230.695, 2473.192 1206.688 C 2476.151 1193.017, 2476.420 1163.140, 2473.704 1149.730 C 2465.742 1110.414, 2442.908 1076.266, 2409.608 1053.876 C 2393.610 1043.120, 2374.503 1035.325, 2354.464 1031.380 C 2342.262 1028.978, 2316.021 1028.929, 2303.276 1031.286 C 2275.589 1036.404, 2249.446 1049.404, 2229.886 1067.779 C 2225.365 1072.025, 2047.722 1273.050, 1835.123 1514.500 C 1622.524 1755.950, 1445.700 1956.512, 1442.181 1960.193 C 1437.625 1964.958, 1434.465 1967.335, 1431.213 1968.443 C 1425.376 1970.432, 1416.981 1970.435, 1412.218 1968.451 C 1407.547 1966.505, 1401.489 1960.716, 1398.665 1955.500 L 1396.500 1951.500 1395.985 1039.500 L 1395.471 127.500 1393.307 118.218 C 1386.177 87.636, 1373.359 63.869, 1352.898 43.295 C 1332.590 22.877, 1307.381 9.157, 1278.694 2.911 C 1269.682 0.949, 1241.542 -0.459, 1233 0.626" stroke="none" fill="currentColor" fill-rule="evenodd"></path>
</svg>