<svg xmlns="http://www.w3.org/2000/svg" width="64" height="64" viewBox="0 0 2500 2500" version="1.1">
	<path d="M 1233 1.039 C 1175.680 8.091, 1123.765 31.409, 1079.465 70 C 1071.852 76.632, 959.047 204.648, 566.179 652.500 C 289.238 968.200, 58.524 1230.826, 53.480 1236.114 C 34.089 1256.444, 21.319 1280.829, 15.312 1309 C 12.719 1321.162, 12.752 1353.927, 15.370 1366 C 21.947 1396.337, 34.580 1419.717, 55.932 1441.068 C 76.948 1462.085, 100.159 1474.756, 130.019 1481.515 C 141.511 1484.116, 170.265 1484.670, 183.244 1482.540 C 219.745 1476.550, 254.179 1455.650, 277.324 1425.438 C 285.076 1415.319, 1055.182 540.839, 1060.764 535.817 C 1065.416 531.631, 1070.154 530.014, 1077.782 530.006 C 1087.146 529.996, 1094.834 534.663, 1099.589 543.246 L 1102.500 548.500 1103.015 1460.500 L 1103.530 2372.500 1105.831 2382.500 C 1110.527 2402.915, 1116.953 2418.231, 1127.415 2433.945 C 1149.320 2466.849, 1181.208 2488.459, 1220.817 2497.242 C 1234.844 2500.352, 1265.156 2500.352, 1279.183 2497.242 C 1324.543 2487.184, 1361.434 2458.784, 1381.466 2418.500 C 1387.628 2406.108, 1390.818 2397.068, 1394.169 2382.500 L 1396.470 2372.500 1396.985 1460.500 L 1397.500 548.500 1400.411 543.246 C 1405.178 534.642, 1412.846 530, 1422.290 530 C 1430.851 530, 1435.846 532.271, 1442.696 539.278 C 1446.041 542.700, 1621.654 741.925, 1832.947 982 C 2044.239 1222.075, 2221.622 1422.885, 2227.131 1428.245 C 2279.058 1478.766, 2359.879 1483.587, 2418.263 1439.646 C 2434.653 1427.310, 2451.411 1407.071, 2460.960 1388.080 C 2466.504 1377.052, 2472.454 1358.852, 2474.468 1346.756 C 2477.712 1327.280, 2476.300 1301.805, 2470.880 1282 C 2466.487 1265.945, 2455.599 1244.628, 2445.087 1231.500 C 2434.799 1218.650, 1434.558 83.126, 1428.226 77.107 C 1386.785 37.713, 1336.635 12.710, 1279.500 2.957 C 1265.678 0.597, 1243.893 -0.301, 1233 1.039" stroke="none" fill="currentColor" fill-rule="evenodd"></path>
</svg>