<svg xmlns="http://www.w3.org/2000/svg" width="64" height="64" viewBox="0 0 2500 2500" version="1.1">
	<path d="M 1237 469.681 C 1183.550 475.185, 1135.812 494.928, 1084.149 532.894 C 1073.972 540.372, 1065.374 550.055, 571.180 1110.500 C 294.740 1424, 64.263 1685, 59.009 1690.500 C -15.077 1768.058, -15.310 1877.465, 58.445 1954.831 C 134.663 2034.780, 248.361 2038.559, 328.509 1963.808 C 332.818 1959.788, 537.392 1729.436, 783.117 1451.913 L 1229.889 947.326 1238.195 944.003 C 1249.105 939.636, 1257.377 939.321, 1264 943.018 C 1267.496 944.970, 1367.151 1056.949, 1710.612 1444.858 C 1953.773 1719.487, 2156.948 1948.467, 2162.112 1953.702 C 2181.550 1973.408, 2199.571 1986.539, 2222.294 1997.553 C 2268.965 2020.175, 2322.871 2024.661, 2370 2009.845 C 2382.932 2005.780, 2405.477 1994.468, 2417 1986.264 C 2427.917 1978.491, 2445.897 1960.944, 2454.161 1949.998 C 2479.535 1916.390, 2493.737 1878.979, 2497.150 1836.756 C 2501.011 1788.988, 2485.470 1740.014, 2455.780 1706.388 C 2363.090 1601.413, 1440.120 554.767, 1433.614 547.254 C 1422.256 534.140, 1412.292 524.607, 1400.063 515.156 C 1367.855 490.264, 1327.268 474.192, 1286.144 470.044 C 1276.572 469.079, 1245.103 468.846, 1237 469.681" stroke="none" fill="currentColor" fill-rule="evenodd"></path>
</svg>