<svg xmlns="http://www.w3.org/2000/svg" width="64" height="64" viewBox="0 0 2500 2500" version="1.1">
	<path d="M 2292 473.121 C 2280.162 474.481, 2269.453 476.897, 2256.568 481.115 C 2228.708 490.233, 2203.212 505.646, 2180.939 526.836 C 2175.748 531.775, 1969 766.660, 1721.500 1048.802 L 1271.500 1561.789 1265 1564.816 C 1249.734 1571.925, 1239.650 1571.635, 1230.868 1563.837 C 1228.213 1561.480, 339.928 549.116, 326.010 532.586 C 308.559 511.858, 283.597 494.806, 257.317 485.659 C 211.946 469.866, 160.023 474.036, 111.500 497.369 C 50.236 526.829, 13.596 575.628, 3.397 641.347 C 1.207 655.458, 1.208 683.158, 3.399 698.394 C 7.861 729.430, 19.825 760.565, 36.500 784.539 C 39.250 788.493, 272.825 1051.102, 555.555 1368.114 C 838.285 1685.126, 1072.936 1948.325, 1077.002 1953 C 1113.396 1994.851, 1157.542 2019.321, 1213.500 2028.659 C 1230.695 2031.529, 1269.049 2031.269, 1286.333 2028.165 C 1334.354 2019.543, 1381.477 1997.840, 1416.387 1968.269 C 1422.625 1962.985, 1558.702 1809.475, 1933.599 1384.799 C 2213.410 1067.835, 2446.656 803.996, 2451.923 798.490 C 2472.549 776.932, 2486.834 754.135, 2496.654 727.108 L 2500.067 717.716 2499.783 665.108 L 2499.500 612.500 2495.769 603.214 C 2475.548 552.886, 2438.902 513.254, 2391.500 490.450 C 2359.803 475.201, 2325.656 469.254, 2292 473.121" stroke="none" fill="currentColor" fill-rule="evenodd"></path>
</svg>