<svg xmlns="http://www.w3.org/2000/svg" width="64" height="64" viewBox="0 0 2500 2500" version="1.1">
	<path d="M 1135.500 4.627 C 1084.224 12.321, 1043.372 41.179, 1020.729 85.701 C 992.263 141.673, 1001.525 209.293, 1043.975 255.417 C 1046.464 258.121, 1252.408 439.779, 1501.628 659.100 C 1898.280 1008.165, 1955.047 1058.465, 1957.084 1062.674 C 1960.274 1069.264, 1960.267 1078.720, 1957.067 1085 C 1953.958 1091.101, 1951.402 1093.720, 1945.500 1096.849 L 1940.500 1099.500 1035.500 1100.015 L 130.500 1100.530 120.801 1102.775 C 54.389 1118.147, 8.091 1170.356, 1.858 1236.903 C -1.321 1270.848, 7.579 1305.201, 27.008 1333.977 C 48.729 1366.147, 81.233 1388.066, 120.801 1397.225 L 130.500 1399.470 1035.500 1399.985 L 1940.500 1400.500 1944.500 1402.665 C 1949.745 1405.504, 1955.426 1411.536, 1957.411 1416.372 C 1959.879 1422.387, 1959.484 1431.636, 1956.503 1437.618 C 1954.296 1442.047, 1901.636 1488.699, 1502.253 1840.040 C 1253.789 2058.616, 1046.294 2241.512, 1041.152 2246.476 C 986.219 2299.509, 979.974 2383.638, 1026.392 2445.313 C 1034.330 2455.860, 1050.138 2470.652, 1061.692 2478.344 C 1072.529 2485.558, 1086.087 2492.314, 1098.500 2496.684 L 1106.500 2499.500 1144.025 2499.794 L 1181.549 2500.088 1191.025 2497.011 C 1207.507 2491.659, 1226.646 2481.418, 1238.476 2471.621 C 1256.543 2456.660, 2420.177 1431.872, 2426.852 1425.044 C 2461.059 1390.051, 2484.572 1345.460, 2493.842 1298 C 2497.320 1280.198, 2498.350 1269.225, 2498.350 1250 C 2498.350 1230.775, 2497.320 1219.802, 2493.842 1202 C 2484.136 1152.306, 2459.139 1106.304, 2422.554 1070.804 C 2405.468 1054.226, 1249.093 36.856, 1240 30.402 C 1230.770 23.852, 1213.168 14.934, 1202.589 11.449 C 1186.065 6.005, 1178.746 4.866, 1158 4.511 C 1147.275 4.327, 1137.150 4.380, 1135.500 4.627" stroke="none" fill="currentColor" fill-rule="evenodd"></path>
</svg>