<svg xmlns="http://www.w3.org/2000/svg" width="64" height="64" viewBox="0 0 2500 2500" version="1.1">
	<path d="M 1327 4.612 C 1298.621 9.745, 1280.332 16.773, 1261.300 29.856 C 1251.960 36.277, 87.433 1060.528, 73.719 1074.384 C 44.309 1104.098, 22.315 1141.998, 10.575 1183.195 C 0.385 1218.951, -0.957 1263.536, 7.006 1301.831 C 16.473 1347.361, 40.018 1391.239, 73.126 1425.052 C 81.466 1433.569, 1241.759 2455.062, 1254.193 2464.833 C 1272.971 2479.591, 1296.717 2489.683, 1323 2494.077 C 1333.632 2495.855, 1357.495 2495.612, 1369 2493.609 C 1402.854 2487.716, 1430.653 2472.888, 1454.160 2448.187 C 1473.284 2428.091, 1486.042 2403.502, 1492.132 2375 C 1495.170 2360.784, 1495.414 2333.405, 1492.636 2318.500 C 1487.555 2291.239, 1474.030 2264.013, 1455.953 2244.657 C 1452.062 2240.491, 1245.714 2058.311, 997.402 1839.814 C 582.059 1474.342, 545.715 1442.116, 543.296 1437.172 C 536.915 1424.129, 542.672 1408.153, 555.927 1402.125 C 559.214 1400.630, 631.757 1400.459, 1462 1399.985 L 2364.500 1399.470 2374.077 1397.250 C 2424.802 1385.490, 2463.253 1354.049, 2483.040 1308.153 C 2507.042 1252.480, 2493.714 1185.854, 2450.002 1143 C 2428.730 1122.145, 2405.768 1109.909, 2373.500 1102.234 C 2367.005 1100.690, 2301.284 1100.531, 1463 1100.035 L 559.500 1099.500 555.447 1097.330 C 545.922 1092.231, 541.044 1084.330, 541.044 1074 C 541.044 1066.642, 543.080 1061.195, 547.599 1056.462 C 549.195 1054.792, 752.550 875.651, 999.500 658.372 C 1246.450 441.092, 1451.901 259.702, 1456.057 255.281 C 1499.926 208.626, 1508.575 136.134, 1476.914 80.474 C 1455.252 42.394, 1419.408 16.109, 1376 6.472 C 1368.732 4.859, 1333.112 3.506, 1327 4.612" stroke="none" fill="currentColor" fill-rule="evenodd"></path>
</svg>