<svg xmlns="http://www.w3.org/2000/svg" width="64" height="64" viewBox="0 0 2500 2500" version="1.1">
	<path d="M 643 2.090 C 575.533 10.774, 513.858 53.772, 485.911 111.607 C 452.384 180.990, 465.010 264.210, 517.500 319.813 C 522.480 325.088, 755.659 530.450, 1039.528 779.565 L 1552.556 1229.783 1555.207 1236.239 C 1560.758 1249.756, 1560.993 1257.672, 1556.078 1265.665 C 1555.008 1267.406, 1324.490 1470.306, 1043.816 1716.554 C 763.142 1962.802, 529.074 2168.602, 523.665 2173.889 C 511.474 2185.803, 504.216 2194.548, 495.585 2207.721 C 464.210 2255.609, 457.444 2314.723, 476.610 2373.500 C 485.719 2401.434, 504.497 2433.115, 523.947 2453.363 C 542.556 2472.734, 568.422 2489.205, 593.176 2497.445 L 600.853 2500 653.381 2500 L 705.909 2500 717.080 2496.015 C 738.001 2488.552, 757.531 2477.633, 774.500 2463.912 C 778.900 2460.354, 1044.400 2225.968, 1364.500 1943.054 C 1684.600 1660.140, 1949.875 1425.718, 1954 1422.116 C 1994.375 1386.859, 2018.537 1343.605, 2028.079 1289.500 C 2030.779 1274.192, 2031.769 1242.411, 2030.075 1225.419 C 2024.721 1171.717, 2001.839 1118.243, 1962.755 1068.098 C 1955.909 1059.314, 793.929 42.678, 781.002 34.162 C 755.901 17.626, 726.944 6.720, 697.073 2.554 C 685.054 0.878, 654.459 0.615, 643 2.090" stroke="none" fill="currentColor" fill-rule="evenodd"></path>
</svg>