<svg xmlns="http://www.w3.org/2000/svg" width="64" height="64" viewBox="0 0 2500 2500" version="1.1">
	<path d="M 1826.140 4.079 C 1792.145 7.359, 1755.147 22.653, 1727 45.062 C 1717.415 52.693, 545.918 1077.816, 536.450 1086.857 C 502.181 1119.582, 480.661 1160.734, 471.988 1210.128 C 469.230 1225.835, 468.202 1256.895, 469.940 1272.026 C 473.055 1299.147, 481.362 1326.938, 493.996 1352.500 C 506.159 1377.108, 520.604 1397.482, 537.681 1414.116 C 541.981 1418.305, 806.050 1649.345, 1124.500 1927.539 C 1442.950 2205.733, 1707.775 2437.443, 1713 2442.450 C 1771.667 2498.666, 1852.655 2512.314, 1923.690 2477.956 C 1972.851 2454.177, 2013.619 2407.679, 2029.833 2356.894 C 2035.543 2339.011, 2037.124 2329.190, 2037.704 2308 C 2038.484 2279.496, 2035.143 2259.635, 2025.507 2235.500 C 2014.527 2208.001, 1999.782 2186.308, 1977.090 2164.275 C 1970.166 2157.551, 1735.900 1951.545, 1456.500 1706.483 C 1177.100 1461.422, 947.039 1259.076, 945.253 1256.827 C 939.349 1249.390, 938.982 1241.047, 944.235 1233.671 C 945.953 1231.258, 1948.393 350.907, 1974.580 328.814 C 2004.754 303.356, 2023.382 272.213, 2031.068 234.373 C 2035.249 213.794, 2034.737 182.963, 2029.835 160 C 2022.571 125.978, 2002.262 85.393, 1982.130 64.669 C 1939.266 20.545, 1882.801 -1.387, 1826.140 4.079" stroke="none" fill="currentColor" fill-rule="evenodd"></path>
</svg>