<svg xmlns="http://www.w3.org/2000/svg" viewBox="0 0 2500 2500"><path d="M1135.5 4.627c-51.276 7.694-92.128 36.552-114.771 81.074-28.466 55.972-19.204 123.592 23.246 169.716 2.489 2.704 208.433 184.362 457.653 403.683 396.652 349.065 453.419 399.365 455.456 403.574 3.19 6.59 3.183 16.046-.017 22.326-3.109 6.101-5.665 8.72-11.567 11.849l-5 2.651-905 .515-905 .515-9.699 2.245c-66.412 15.372-112.71 67.581-118.943 134.128-3.179 33.945 5.721 68.298 25.15 97.074 21.721 32.17 54.225 54.089 93.793 63.248l9.699 2.245 905 .515 905 .515 4 2.165c5.245 2.839 10.926 8.871 12.911 13.707 2.468 6.015 2.073 15.264-.908 21.246-2.207 4.429-54.867 51.081-454.25 402.422-248.464 218.576-455.959 401.472-461.101 406.436-54.933 53.033-61.178 137.162-14.76 198.837 7.938 10.547 23.746 25.339 35.3 33.031 10.837 7.214 24.395 13.97 36.808 18.34l8 2.816 37.525.294 37.524.294 9.476-3.077c16.482-5.352 35.621-15.593 47.451-25.39 18.067-14.961 1181.701-1039.749 1188.376-1046.577 34.207-34.993 57.72-79.584 66.99-127.044 3.478-17.802 4.508-28.775 4.508-48s-1.03-30.198-4.508-48c-9.706-49.694-34.703-95.696-71.288-131.196C2405.468 1054.226 1249.093 36.856 1240 30.402c-9.23-6.55-26.832-15.468-37.411-18.953-16.524-5.444-23.843-6.583-44.589-6.938-10.725-.184-20.85-.131-22.5.116" fill="currentColor" fill-rule="evenodd"/></svg>