<svg xmlns="http://www.w3.org/2000/svg" viewBox="0 0 2500 2500"><path d="M643 2.09c-67.467 8.684-129.142 51.682-157.089 109.517C452.384 180.99 465.01 264.21 517.5 319.813c4.98 5.275 238.159 210.637 522.028 459.752l513.028 450.218 2.651 6.456c5.551 13.517 5.786 21.433.871 29.426-1.07 1.741-231.588 204.641-512.262 450.889-280.674 246.248-514.742 452.048-520.151 457.335-12.191 11.914-19.449 20.659-28.08 33.832-31.375 47.888-38.141 107.002-18.975 165.779 9.109 27.934 27.887 59.615 47.337 79.863 18.609 19.371 44.475 35.842 69.229 44.082l7.677 2.555h105.056l11.171-3.985c20.921-7.463 40.451-18.382 57.42-32.103 4.4-3.558 269.9-237.944 590-520.858s585.375-517.336 589.5-520.938c40.375-35.257 64.537-78.511 74.079-132.616 2.7-15.308 3.69-47.089 1.996-64.081-5.354-53.702-28.236-107.176-67.32-157.321-6.846-8.784-1168.826-1025.42-1181.753-1033.936-25.101-16.536-54.058-27.442-83.929-31.608C685.054.878 654.459.615 643 2.09" fill="currentColor" fill-rule="evenodd"/></svg>