<svg xmlns="http://www.w3.org/2000/svg" viewBox="0 0 2500 2500"><path d="M1233 1.039c-57.32 7.052-109.235 30.37-153.535 68.961-7.613 6.632-120.418 134.648-513.286 582.5C289.238 968.2 58.524 1230.826 53.48 1236.114c-19.391 20.33-32.161 44.715-38.168 72.886-2.593 12.162-2.56 44.927.058 57 6.577 30.337 19.21 53.717 40.562 75.068 21.016 21.017 44.227 33.688 74.087 40.447 11.492 2.601 40.246 3.155 53.225 1.025 36.501-5.99 70.935-26.89 94.08-57.102 7.752-10.119 777.858-884.599 783.44-889.621 4.652-4.186 9.39-5.803 17.018-5.811 9.364-.01 17.052 4.657 21.807 13.24l2.911 5.254.515 912 .515 912 2.301 10c4.696 20.415 11.122 35.731 21.584 51.445 21.905 32.904 53.793 54.514 93.402 63.297 14.027 3.11 44.339 3.11 58.366 0 45.36-10.058 82.251-38.458 102.283-78.742 6.162-12.392 9.352-21.432 12.703-36l2.301-10 .515-912 .515-912 2.911-5.254c4.767-8.604 12.435-13.246 21.879-13.246 8.561 0 13.556 2.271 20.406 9.278 3.345 3.422 178.958 202.647 390.251 442.722 211.292 240.075 388.675 440.885 394.184 446.245 51.927 50.521 132.748 55.342 191.132 11.401 16.39-12.336 33.148-32.575 42.697-51.566 5.544-11.028 11.494-29.228 13.508-41.324 3.244-19.476 1.832-44.951-3.588-64.756-4.393-16.055-15.281-37.372-25.793-50.5-10.288-12.85-1010.529-1148.374-1016.861-1154.393-41.441-39.394-91.591-64.397-148.726-74.15-13.822-2.36-35.607-3.258-46.5-1.918" fill="currentColor" fill-rule="evenodd"/></svg>