<svg xmlns="http://www.w3.org/2000/svg" viewBox="0 0 2500 2500"><path d="M1237 469.681c-53.45 5.504-101.188 25.247-152.851 63.213-10.177 7.478-18.775 17.161-512.969 577.606C294.74 1424 64.263 1685 59.009 1690.5c-74.086 77.558-74.319 186.965-.564 264.331 76.218 79.949 189.916 83.728 270.064 8.977 4.309-4.02 208.883-234.372 454.608-511.895l446.772-504.587 8.306-3.323c10.91-4.367 19.182-4.682 25.805-.985 3.496 1.952 103.151 113.931 446.612 501.84 243.161 274.629 446.336 503.609 451.5 508.844 19.438 19.706 37.459 32.837 60.182 43.851 46.671 22.622 100.577 27.108 147.706 12.292 12.932-4.065 35.477-15.377 47-23.581 10.917-7.773 28.897-25.32 37.161-36.266 25.374-33.608 39.576-71.019 42.989-113.242 3.861-47.768-11.68-96.742-41.37-130.368-92.69-104.975-1015.66-1151.621-1022.166-1159.134-11.358-13.114-21.322-22.647-33.551-32.098-32.208-24.892-72.795-40.964-113.919-45.112-9.572-.965-41.041-1.198-49.144-.363" fill="currentColor" fill-rule="evenodd"/></svg>