<svg xmlns="http://www.w3.org/2000/svg" viewBox="0 0 2500 2500"><path d="M1327 4.612c-28.379 5.133-46.668 12.161-65.7 25.244-9.34 6.421-1173.867 1030.672-1187.581 1044.528-29.41 29.714-51.404 67.614-63.144 108.811-10.19 35.756-11.532 80.341-3.569 118.636 9.467 45.53 33.012 89.408 66.12 123.221 8.34 8.517 1168.633 1030.01 1181.067 1039.781 18.778 14.758 42.524 24.85 68.807 29.244 10.632 1.778 34.495 1.535 46-.468 33.854-5.893 61.653-20.721 85.16-45.422 19.124-20.096 31.882-44.685 37.972-73.187 3.038-14.216 3.282-41.595.504-56.5-5.081-27.261-18.606-54.487-36.683-73.843-3.891-4.166-210.239-186.346-458.551-404.843-415.343-365.472-451.687-397.698-454.106-402.642-6.381-13.043-.624-29.019 12.631-35.047 3.287-1.495 75.83-1.666 906.073-2.14l902.5-.515 9.577-2.22c50.725-11.76 89.176-43.201 108.963-89.097 24.002-55.673 10.674-122.299-33.038-165.153-21.272-20.855-44.234-33.091-76.502-40.766-6.495-1.544-72.216-1.703-910.5-2.199l-903.5-.535-4.053-2.17c-9.525-5.099-14.403-13-14.403-23.33 0-7.358 2.036-12.805 6.555-17.538 1.596-1.67 204.951-180.811 451.901-398.09 246.95-217.28 452.401-398.67 456.557-403.091 43.869-46.655 52.518-119.147 20.857-174.807-21.662-38.08-57.506-64.365-100.914-74.002-7.268-1.613-42.888-2.966-49-1.86" fill="currentColor" fill-rule="evenodd"/></svg>