<svg xmlns="http://www.w3.org/2000/svg" viewBox="0 0 2500 2500"><path d="M2292 473.121c-11.838 1.36-22.547 3.776-35.432 7.994-27.86 9.118-53.356 24.531-75.629 45.721-5.191 4.939-211.939 239.824-459.439 521.966l-450 512.987-6.5 3.027c-15.266 7.109-25.35 6.819-34.132-.979-2.655-2.357-890.94-1014.721-904.858-1031.251-17.451-20.728-42.413-37.78-68.693-46.927-45.371-15.793-97.294-11.623-145.817 11.71-61.264 29.46-97.904 78.259-108.103 143.978-2.19 14.111-2.189 41.811.002 57.047 4.462 31.036 16.426 62.171 33.101 86.145 2.75 3.954 236.325 266.563 519.055 583.575 282.73 317.012 517.381 580.211 521.447 584.886 36.394 41.851 80.54 66.321 136.498 75.659 17.195 2.87 55.549 2.61 72.833-.494 48.021-8.622 95.144-30.325 130.054-59.896 6.238-5.284 142.315-158.794 517.212-583.47 279.811-316.964 513.057-580.803 518.324-586.309 20.626-21.558 34.911-44.355 44.731-71.382l3.413-9.392-.284-52.608-.283-52.608-3.731-9.286c-20.221-50.328-56.867-89.96-104.269-112.764-31.697-15.249-65.844-21.196-99.5-17.329" fill="currentColor" fill-rule="evenodd"/></svg>