<svg xmlns="http://www.w3.org/2000/svg" viewBox="0 0 2500 2500"><path d="M1826.14 4.079c-33.995 3.28-70.993 18.574-99.14 40.983-9.585 7.631-1181.082 1032.754-1190.55 1041.795-34.269 32.725-55.789 73.877-64.462 123.271-2.758 15.707-3.786 46.767-2.048 61.898 3.115 27.121 11.422 54.912 24.056 80.474 12.163 24.608 26.608 44.982 43.685 61.616 4.3 4.189 268.369 235.229 586.819 513.423 318.45 278.194 583.275 509.904 588.5 514.911 58.667 56.216 139.655 69.864 210.69 35.506 49.161-23.779 89.929-70.277 106.143-121.062 5.71-17.883 7.291-27.704 7.871-48.894.78-28.504-2.561-48.365-12.197-72.5-10.98-27.499-25.725-49.192-48.417-71.225-6.924-6.724-241.19-212.73-520.59-457.792-279.4-245.061-509.461-447.407-511.247-449.656-5.904-7.437-6.271-15.78-1.018-23.156 1.718-2.413 1004.158-882.764 1030.345-904.857 30.174-25.458 48.802-56.601 56.488-94.441 4.181-20.579 3.669-51.41-1.233-74.373-7.264-34.022-27.573-74.607-47.705-95.331-42.864-44.124-99.329-66.056-155.99-60.59" fill="currentColor" fill-rule="evenodd"/></svg>