<svg xmlns="http://www.w3.org/2000/svg" viewBox="0 0 64 64"><defs><style>.cls-1,.cls-2,.cls-3{stroke-width:0;fill:currentColor}</style></defs><path class="cls-3" d="M41.96 39.97c-9.9 0-17.93-8.03-17.93-17.94 0-2.28.44-4.55 1.29-6.67-9.19 3.69-13.65 14.13-9.96 23.32 3.69 9.19 14.13 13.65 23.32 9.96 4.54-1.82 8.14-5.42 9.96-9.96-2.12.85-4.39 1.29-6.68 1.29Z" id="dark"/><path class="cls-2" d="M41.98 42.09h-.02c-11.06 0-20.05-9-20.05-20.06 0-2.57.48-5.07 1.44-7.46a2.118 2.118 0 0 1 2.76-1.18c1.09.44 1.62 1.67 1.18 2.76-.75 1.88-1.13 3.86-1.13 5.88 0 8.72 7.09 15.81 15.8 15.81h.02c2.02 0 3.99-.38 5.87-1.13 1.08-.42 2.32.09 2.76 1.18.44 1.09-.09 2.33-1.18 2.76-2.38.95-4.88 1.44-7.45 1.44Z" id="light"/><path class="cls-1" d="M61.88 29.88h-9.94c-.42-3.94-1.98-7.53-4.35-10.46l7.04-7.04c.83-.83.83-2.17 0-3s-2.17-.83-3 0l-7.04 7.04a19.922 19.922 0 0 0-10.46-4.35V2.12a2.121 2.121 0 0 0-4.24 0v9.94c-3.94.42-7.53 1.98-10.46 4.35l-7.04-7.04c-.83-.83-2.17-.83-3 0-.83.83-.83 2.17 0 3l7.04 7.04a19.956 19.956 0 0 0-4.35 10.46H2.12c-1.17 0-2.12.95-2.12 2.12s.95 2.13 2.12 2.13h9.94c.42 3.94 1.98 7.53 4.35 10.46l-7.04 7.04a2.118 2.118 0 0 0 1.5 3.62c.54 0 1.09-.21 1.5-.62l7.04-7.04c2.92 2.37 6.52 3.93 10.46 4.35v9.94a2.121 2.121 0 0 0 4.24 0v-9.94c3.94-.42 7.53-1.98 10.46-4.35l7.04 7.04c.41.41.96.62 1.5.62s1.09-.21 1.5-.62c.83-.83.83-2.17 0-3l-7.04-7.04c2.37-2.92 3.93-6.52 4.35-10.46h9.94c1.17 0 2.12-.95 2.12-2.13s-.95-2.12-2.12-2.12ZM32 47.8c-8.71 0-15.8-7.09-15.8-15.8S23.29 16.2 32 16.2 47.8 23.29 47.8 32 40.71 47.8 32 47.8Z" id="outer"/></svg>